SplineFontDB: 3.0
FontName: BladeRunnerMovieFont
FullName: Blade Runner Movie Font
FamilyName: Blade Runner Movie Font
Weight: Book
Copyright: Created by Phil Steinschneider (philips@pressroom.com). Inspired by the original Blade Runner movie font. Blade Runner is a trademark of the Blade Runner Partnership. All rights reserved.
Version: Blade Runner Movie Font (International) - v3.01 Sunday, June 2, 2002 12:45:30 pm (EST)
ItalicAngle: 0
UnderlinePosition: -143
UnderlineWidth: 20
Ascent: 800
Descent: 200
InvalidEm: 0
sfntRevision: 0x00010000
LayerCount: 2
Layer: 0 1 "Arri+AOgA-re" 1
Layer: 1 1 "Avant" 0
XUID: [1021 970 1209225914 20043]
StyleMap: 0x0040
FSType: 2
OS2Version: 1
OS2_WeightWidthSlopeOnly: 0
OS2_UseTypoMetrics: 0
CreationTime: 1023026246
ModificationTime: 1517489459
PfmFamily: 81
TTFWeight: 400
TTFWidth: 5
LineGap: 0
VLineGap: 0
Panose: 0 0 4 0 0 0 0 0 0 0
OS2TypoAscent: 886
OS2TypoAOffset: 0
OS2TypoDescent: -236
OS2TypoDOffset: 0
OS2TypoLinegap: 0
OS2WinAscent: 886
OS2WinAOffset: 0
OS2WinDescent: 236
OS2WinDOffset: 0
HheadAscent: 886
HheadAOffset: 0
HheadDescent: -236
HheadDOffset: 0
OS2SubXSize: 700
OS2SubYSize: 650
OS2SubXOff: 0
OS2SubYOff: 143
OS2SupXSize: 700
OS2SupYSize: 650
OS2SupXOff: 0
OS2SupYOff: 453
OS2StrikeYSize: 50
OS2StrikeYPos: 259
OS2Vendor: 'MACR'
OS2CodePages: 00000001.00000000
OS2UnicodeRanges: 00000003.00000000.00000000.00000000
Lookup: 258 0 0 "'kern' Cr+AOkA-nage horizontal dans Latin lookup 0" { "sous-table 'kern' Cr+AOkA-nage horizontal dans Latin lookup 0"  } ['kern' ('latn' <'dflt' > ) ]
DEI: 91125
TtTable: prep
NPUSHB
 19
 12
 12
 11
 11
 10
 10
 9
 9
 8
 8
 7
 7
 6
 6
 1
 1
 0
 0
 1
SCANTYPE
PUSHW_1
 511
SCANCTRL
RCVT
ROUND[Grey]
WCVTP
RCVT
ROUND[Grey]
WCVTP
RCVT
ROUND[Grey]
WCVTP
RCVT
ROUND[Grey]
WCVTP
RCVT
ROUND[Grey]
WCVTP
RCVT
ROUND[Grey]
WCVTP
RCVT
ROUND[Grey]
WCVTP
RCVT
ROUND[Grey]
WCVTP
RCVT
ROUND[Grey]
WCVTP
PUSHB_4
 3
 2
 70
 0
CALL
PUSHB_4
 5
 4
 70
 0
CALL
PUSHB_2
 2
 2
RCVT
ROUND[Grey]
WCVTP
PUSHB_2
 4
 4
RCVT

StartChar: .notdef
Encoding: 65536 -1 0
Width: 500
Flags: W
LayerCount: 2
Fore
SplineSet
63 0 m 1,0,-1
 63 800 l 1,1,-1
 438 800 l 1,2,-1
 438 0 l 1,3,-1
 63 0 l 1,0,-1
125 63 m 1,4,-1
 375 63 l 1,5,-1
 375 738 l 1,6,-1
 125 738 l 1,7,-1
 125 63 l 1,4,-1
EndSplineSet
EndChar

StartChar: exclam
Encoding: 33 33 4
Width: 518
Flags: W
LayerCount: 2
Fore
SplineSet
530 691 m 1,0,-1
 417 282 l 1,1,-1
 175 282 l 1,2,-1
 288 691 l 1,3,-1
 530 691 l 1,0,-1
530 691 m 1024,4,-1
387 173 m 1,5,-1
 339 -1 l 1,6,-1
 97 -1 l 1,7,-1
 145 173 l 1,8,-1
 387 173 l 1,5,-1
EndSplineSet
EndChar

StartChar: quotedbl
Encoding: 34 34 5
Width: 505
Flags: W
LayerCount: 2
Fore
SplineSet
181 703 m 1,0,-1
 358 703 l 1,1,-1
 253 429 l 1,2,-1
 75 429 l 1,3,-1
 181 703 l 1,0,-1
407 703 m 1,4,-1
 584 703 l 1,5,-1
 478 429 l 1,6,-1
 301 429 l 1,7,-1
 407 703 l 1,4,-1
EndSplineSet
EndChar

StartChar: numbersign
Encoding: 35 35 6
Width: 669
Flags: W
LayerCount: 2
Fore
SplineSet
143 -10 m 1,0,-1
 203 197 l 1,1,-1
 136 198 l 1,2,-1
 137 270 l 1,3,-1
 224 270 l 1,4,-1
 276 446 l 1,5,-1
 187 446 l 1,6,-1
 186 518 l 1,7,-1
 296 519 l 1,8,-1
 359 730 l 1,9,-1
 419 729 l 1,10,-1
 356 519 l 1,11,-1
 483 517 l 1,12,-1
 543 726 l 1,13,-1
 604 726 l 1,14,-1
 543 517 l 1,15,-1
 622 516 l 1,16,-1
 623 446 l 1,17,-1
 522 444 l 1,18,-1
 471 268 l 1,19,-1
 573 267 l 1,20,-1
 573 194 l 1,21,-1
 450 195 l 1,22,-1
 390 -13 l 1,23,-1
 329 -12 l 1,24,-1
 389 195 l 1,25,-1
 263 197 l 1,26,-1
 203 -11 l 1,27,-1
 143 -10 l 1,0,-1
285 269 m 1,28,-1
 410 270 l 1,29,-1
 462 445 l 1,30,-1
 336 446 l 1,31,-1
 285 269 l 1,28,-1
EndSplineSet
EndChar

StartChar: dollar
Encoding: 36 36 7
Width: 816
Flags: W
LayerCount: 2
Fore
SplineSet
330 297 m 1024,0,-1
738 692 m 1,1,-1
 790 863 l 1,2,-1
 546 862 l 1,3,-1
 490 692 l 1,4,5
 498 692 498 692 481 692 c 128,-1,6
 464 692 464 692 438 692 c 2,7,-1
 404 692 l 2,8,9
 339 692 339 692 277 638 c 0,10,11
 219 588 219 588 198 522 c 1,12,-1
 861 522 l 1,13,-1
 907 692 l 1,14,-1
 738 692 l 1,1,-1
738 692 m 1024,15,-1
498 -169 m 1,16,-1
 252 -169 l 1,17,-1
 296 -2 l 1,18,-1
 50 -3 l 1,19,-1
 107 193 l 1,20,-1
 492 192 l 1,21,22
 544 200 544 200 544 242 c 0,23,24
 544 267 544 267 537 276 c 128,-1,25
 530 285 530 285 506 294 c 1,26,-1
 309 292 l 2,27,28
 244 292 244 292 211 335 c 0,29,30
 182 374 182 374 182 440 c 0,31,32
 182 454 182 454 183 470 c 1,33,-1
 639 469 l 1,34,35
 733 456 733 456 769 414 c 0,36,37
 776 406 776 406 804 372 c 1,38,39
 822 323 822 323 822 260 c 0,40,41
 822 182 822 182 794 133 c 0,42,43
 737 33 737 33 611 -2 c 1,44,-1
 541 -3 l 1,45,-1
 498 -169 l 1,16,-1
EndSplineSet
EndChar

StartChar: percent
Encoding: 37 37 8
Width: 1016
Flags: W
LayerCount: 2
Fore
SplineSet
686 168 m 256,0,1
 686 136 686 136 707.5 114 c 128,-1,2
 729 92 729 92 762 92 c 0,3,4
 793 92 793 92 815.5 114.5 c 128,-1,5
 838 137 838 137 838 168 c 0,6,7
 838 200 838 200 816 222 c 128,-1,8
 794 244 794 244 762 244 c 0,9,10
 729 244 729 244 707.5 222 c 128,-1,11
 686 200 686 200 686 168 c 256,0,1
581 168 m 256,12,13
 581 246 581 246 632.5 298 c 128,-1,14
 684 350 684 350 762 350 c 0,15,16
 838 350 838 350 891 297 c 128,-1,17
 944 244 944 244 944 168 c 256,18,19
 944 92 944 92 891 39 c 128,-1,20
 838 -14 838 -14 762 -14 c 0,21,22
 684 -14 684 -14 632.5 38 c 128,-1,23
 581 90 581 90 581 168 c 256,12,13
297 -14 m 1,24,-1
 714 705 l 1,25,-1
 792 705 l 1,26,-1
 375 -14 l 1,27,-1
 297 -14 l 1,24,-1
253 523 m 0,28,29
 253 491 253 491 274.5 469 c 128,-1,30
 296 447 296 447 329 447 c 0,31,32
 360 447 360 447 382.5 469 c 128,-1,33
 405 491 405 491 405 523 c 256,34,35
 405 555 405 555 383 577.5 c 128,-1,36
 361 600 361 600 329 600 c 0,37,38
 296 600 296 600 274.5 578 c 128,-1,39
 253 556 253 556 253 523 c 0,28,29
148 524 m 0,40,41
 148 602 148 602 199.5 653.5 c 128,-1,42
 251 705 251 705 329 705 c 0,43,44
 405 705 405 705 458 652.5 c 128,-1,45
 511 600 511 600 511 524 c 256,46,47
 511 448 511 448 457.5 395 c 128,-1,48
 404 342 404 342 329 342 c 0,49,50
 251 342 251 342 199.5 394.5 c 128,-1,51
 148 447 148 447 148 524 c 0,40,41
EndSplineSet
EndChar

StartChar: ampersand
Encoding: 38 38 9
Width: 671
Flags: W
LayerCount: 2
Fore
SplineSet
238 315 m 1,0,1
 137 270 137 270 137 203 c 0,2,3
 137 160 137 160 162.5 133 c 128,-1,4
 188 106 188 106 231 106 c 0,5,6
 281 106 281 106 343 144 c 1,7,-1
 238 315 l 1,0,1
432 0 m 1,8,-1
 405 44 l 1,9,10
 314 -16 314 -16 211 -16 c 0,11,12
 117 -16 117 -16 57 42.5 c 128,-1,13
 -3 101 -3 101 -3 194 c 0,14,15
 -3 272 -3 272 53 329 c 0,16,17
 94 371 94 371 179 411 c 1,18,-1
 156 452 l 2,19,20
 124 508 124 508 124 553 c 0,21,22
 124 630 124 630 180 676 c 0,23,24
 232 719 232 719 310 719 c 0,25,26
 390 719 390 719 442 678 c 0,27,28
 499 634 499 634 499 556 c 0,29,30
 499 438 499 438 354 370 c 1,31,-1
 437 236 l 1,32,33
 476 291 476 291 486 340 c 1,34,-1
 603 340 l 1,35,36
 579 220 579 220 502 134 c 1,37,-1
 585 0 l 1,38,-1
 432 0 l 1,8,-1
295 466 m 1,39,40
 373 505 373 505 373 563 c 0,41,42
 373 617 373 617 313 617 c 0,43,44
 250 617 250 617 250 562 c 0,45,46
 250 535 250 535 287 479 c 0,47,48
 289 475 289 475 295 466 c 1,39,40
EndSplineSet
EndChar

StartChar: quotesingle
Encoding: 39 39 10
Width: 240
Flags: W
LayerCount: 2
Fore
SplineSet
194 703 m 1,0,-1
 371 703 l 1,1,-1
 265 429 l 1,2,-1
 88 429 l 1,3,-1
 194 703 l 1,0,-1
EndSplineSet
EndChar

StartChar: parenleft
Encoding: 40 40 11
Width: 327
Flags: W
LayerCount: 2
Fore
SplineSet
284 -128 m 1,0,1
 102 -128 102 -128 59 6 c 0,2,3
 48 39 48 39 48 88 c 0,4,5
 48 152 48 152 65 218 c 2,6,-1
 128 462 l 1,7,-1
 245 462 l 1,8,-1
 184 208 l 2,9,10
 167 137 167 137 167 74 c 0,11,12
 167 25 167 25 177 -9 c 0,13,14
 202 -87 202 -87 284 -128 c 1,0,1
259 520 m 1,15,16
 292 672 292 672 350 782 c 1,17,18
 275 782 275 782 211 686 c 0,19,20
 160 608 160 608 141 520 c 1,21,-1
 259 520 l 1,15,16
EndSplineSet
EndChar

StartChar: parenright
Encoding: 41 41 12
Width: 304
Flags: W
LayerCount: 2
Fore
SplineSet
194 462 m 1,0,-1
 312 462 l 1,1,2
 278 318 278 318 245 188 c 0,3,4
 215 66 215 66 160 -4 c 0,5,6
 65 -125 65 -125 -120 -128 c 1,7,8
 50 -118 50 -118 92 23 c 0,9,10
 124 131 124 131 194 462 c 1,0,-1
207 521 m 1,11,-1
 318 521 l 1,12,13
 322 555 322 555 322 584 c 0,14,15
 322 665 322 665 293 717 c 0,16,17
 257 780 257 780 183 783 c 1,18,19
 222 727 222 727 222 655 c 0,20,21
 222 629 222 629 216 588 c 0,22,23
 208 535 208 535 207 521 c 1,11,-1
EndSplineSet
EndChar

StartChar: asterisk
Encoding: 42 42 13
Width: 500
Flags: W
LayerCount: 2
Fore
SplineSet
271 434 m 1,0,-1
 186 313 l 1,1,-1
 102 371 l 1,2,-1
 196 489 l 1,3,-1
 60 527 l 1,4,-1
 92 626 l 1,5,-1
 222 579 l 1,6,-1
 222 719 l 1,7,-1
 320 719 l 1,8,-1
 320 579 l 1,9,-1
 450 625 l 1,10,-1
 483 526 l 1,11,-1
 346 489 l 1,12,-1
 439 372 l 1,13,-1
 355 311 l 1,14,-1
 271 434 l 1,0,-1
EndSplineSet
EndChar

StartChar: plus
Encoding: 43 43 14
Width: 548
Flags: W
LayerCount: 2
Fore
SplineSet
510 292 m 1,0,-1
 351 290 l 1,1,-1
 295 94 l 1,2,-1
 174 93 l 1,3,-1
 233 289 l 1,4,-1
 72 289 l 1,5,-1
 111 417 l 1,6,-1
 273 417 l 1,7,-1
 333 612 l 1,8,-1
 450 612 l 1,9,-1
 390 418 l 1,10,-1
 552 417 l 1,11,-1
 510 292 l 1,0,-1
EndSplineSet
EndChar

StartChar: comma
Encoding: 44 44 15
Width: 276
Flags: W
LayerCount: 2
Fore
SplineSet
28 -164 m 1,0,-1
 44 -112 l 1,1,2
 123 -108 123 -108 148 0 c 1,3,-1
 69 0 l 1,4,-1
 110 146 l 1,5,-1
 258 146 l 1,6,-1
 219 8 l 2,7,8
 195 -75 195 -75 155 -115 c 0,9,10
 109 -160 109 -160 28 -164 c 1,0,-1
EndSplineSet
EndChar

StartChar: hyphen
Encoding: 45 45 16
AltUni2: 002010.ffffffff.0
Width: 555
Flags: W
LayerCount: 2
Fore
SplineSet
491 244 m 1,0,-1
 43 244 l 1,1,-1
 78 371 l 1,2,-1
 527 371 l 1,3,-1
 491 244 l 1,0,-1
EndSplineSet
EndChar

StartChar: period
Encoding: 46 46 17
Width: 300
Flags: W
LayerCount: 2
Fore
SplineSet
50 0 m 1,0,-1
 92 146 l 1,1,-1
 244 146 l 1,2,-1
 203 0 l 1,3,-1
 50 0 l 1,0,-1
EndSplineSet
EndChar

StartChar: slash
Encoding: 47 47 18
Width: 421
Flags: W
LayerCount: 2
Fore
SplineSet
100 -93 m 1,0,-1
 342 738 l 1,1,-1
 409 738 l 1,2,-1
 166 -93 l 1,3,-1
 100 -93 l 1,0,-1
EndSplineSet
EndChar

StartChar: zero
Encoding: 48 48 19
Width: 645
Flags: W
LayerCount: 2
Fore
SplineSet
400 688 m 1,0,-1
 559 690 l 2,1,2
 690 691 690 691 690 554 c 0,3,4
 690 540 690 540 689 524 c 1,5,-1
 118 524 l 1,6,7
 138 586 138 586 190 635 c 0,8,9
 246 688 246 688 307 688 c 2,10,-1
 400 688 l 1,0,-1
276 243 m 2,11,-1
 284 270 l 1,12,-1
 337 457 l 1,13,-1
 104 457 l 1,14,-1
 53 269 l 2,15,16
 39 218 39 218 39 171 c 0,17,18
 39 131 39 131 50 104 c 0,19,20
 74 43 74 43 146 18 c 0,21,22
 186 4 186 4 260 0 c 2,23,-1
 287 -1 l 1,24,25
 553 10 553 10 618 248 c 0,26,27
 623 268 623 268 639 327 c 2,28,-1
 672 456 l 1,29,-1
 444 457 l 1,30,-1
 387 245 l 2,31,32
 375 200 375 200 329 198 c 0,33,34
 276 196 276 196 276 232 c 0,35,36
 276 237 276 237 276 243 c 2,11,-1
EndSplineSet
EndChar

StartChar: one
Encoding: 49 49 20
Width: 444
Flags: W
LayerCount: 2
Fore
SplineSet
413 457 m 1,0,-1
 285 -1 l 1,1,-1
 43 -1 l 1,2,-1
 171 457 l 1,3,-1
 413 457 l 1,0,-1
430 524 m 1,4,-1
 121 524 l 1,5,-1
 228 690 l 1,6,-1
 474 690 l 1,7,-1
 430 524 l 1,4,-1
EndSplineSet
EndChar

StartChar: two
Encoding: 50 50 21
Width: 659
Flags: W
LayerCount: 2
Fore
SplineSet
701 524 m 1,0,1
 701 586 701 586 681 621 c 0,2,3
 643 690 643 690 586 690 c 2,4,-1
 341 690 l 2,5,6
 275 690 275 690 213.5 639.5 c 128,-1,7
 152 589 152 589 130 524 c 1,8,-1
 701 524 l 1,0,1
-13 -1 m 1,9,-1
 563 0 l 1,10,-1
 611 170 l 1,11,-1
 321 170 l 1,12,13
 363 205 363 205 462.5 243.5 c 128,-1,14
 562 282 562 282 603 313 c 0,15,16
 674 369 674 369 693 457 c 1,17,-1
 440 457 l 2,18,19
 441 455 441 455 441 452 c 0,20,21
 441 424 441 424 337 375 c 0,22,23
 183 303 183 303 120 250 c 0,24,25
 -3 148 -3 148 -13 -1 c 1,9,-1
EndSplineSet
EndChar

StartChar: three
Encoding: 51 51 22
Width: 661
Flags: W
LayerCount: 2
Fore
SplineSet
707 524 m 1,0,1
 707 584 707 584 688 621 c 0,2,3
 651 690 651 690 591 690 c 2,4,-1
 346 690 l 2,5,6
 280 690 280 690 217 638 c 0,7,8
 158 589 158 589 135 524 c 1,9,-1
 707 524 l 1,0,1
341 279 m 2,10,11
 437 279 437 279 437 239 c 0,12,13
 437 216 437 216 412 195 c 0,14,15
 392 178 392 178 365 170 c 0,16,17
 342 163 342 163 320 163 c 0,18,19
 278 163 278 163 278 195 c 0,20,21
 278 204 278 204 282 215 c 1,22,-1
 58 215 l 1,23,24
 46 152 46 152 52 127 c 0,25,26
 79 -1 79 -1 220 -1 c 2,27,-1
 405 -1 l 1,28,29
 499 17 499 17 567 96 c 128,-1,30
 635 175 635 175 635 270 c 0,31,32
 635 326 635 326 606 361 c 1,33,34
 662 410 662 410 686 457 c 1,35,-1
 303 457 l 1,36,-1
 255 279 l 1,37,-1
 341 279 l 2,10,11
EndSplineSet
EndChar

StartChar: four
Encoding: 52 52 23
Width: 690
Flags: W
LayerCount: 2
Fore
SplineSet
167 688 m 1,0,-1
 118 522 l 1,1,-1
 344 522 l 1,2,-1
 390 687 l 1,3,-1
 167 688 l 1,0,-1
514 687 m 1,4,-1
 468 522 l 1,5,-1
 694 522 l 1,6,-1
 739 687 l 1,7,-1
 514 687 l 1,4,-1
326 -1 m 1,8,-1
 392 229 l 1,9,-1
 43 227 l 1,10,-1
 103 457 l 1,11,-1
 326 457 l 1,12,-1
 311 398 l 1,13,-1
 438 398 l 1,14,-1
 451 457 l 1,15,-1
 678 457 l 1,16,-1
 554 -3 l 1,17,-1
 326 -1 l 1,8,-1
EndSplineSet
EndChar

StartChar: five
Encoding: 53 53 24
Width: 672
Flags: W
LayerCount: 2
Fore
SplineSet
670 524 m 1,0,-1
 73 524 l 1,1,-1
 179 690 l 1,2,-1
 720 690 l 1,3,-1
 670 524 l 1,0,-1
336 279 m 2,4,5
 378 279 378 279 395 275 c 0,6,7
 431 266 431 266 431 237 c 0,8,9
 431 209 431 209 410.5 187 c 128,-1,10
 390 165 390 165 361 163 c 0,11,12
 340 161 340 161 328 161 c 0,13,14
 270 161 270 161 270 198 c 0,15,16
 270 205 270 205 271 212 c 1,17,-1
 47 213 l 1,18,19
 37 150 37 150 42 127 c 0,20,21
 68 -1 68 -1 210 -1 c 2,22,-1
 407 -1 l 1,23,24
 452 6 452 6 504 39 c 0,25,26
 550 68 550 68 571 95 c 0,27,28
 623 162 623 162 634 248 c 0,29,30
 635 260 635 260 635 271 c 0,31,32
 635 331 635 331 603 370 c 0,33,34
 565 420 565 420 514.5 438.5 c 128,-1,35
 464 457 464 457 391 457 c 2,36,-1
 119 457 l 1,37,-1
 68 281 l 1,38,-1
 336 279 l 2,4,5
EndSplineSet
EndChar

StartChar: six
Encoding: 54 54 25
Width: 684
Flags: W
LayerCount: 2
Fore
SplineSet
621 192 m 0,0,1
 561 -3 561 -3 378 -1 c 2,2,-1
 184 0 l 2,3,4
 48 1 48 1 48 144 c 0,5,6
 48 248 48 248 124 457 c 1,7,-1
 350 457 l 1,8,-1
 345 436 l 1,9,-1
 482 436 l 2,10,11
 643 436 643 436 643 310 c 0,12,13
 643 262 643 262 621 192 c 0,0,1
405 242 m 2,14,15
 407 252 407 252 407 260 c 0,16,17
 407 277 407 277 393 282 c 0,18,19
 387 283 387 283 354 285 c 0,20,21
 306 286 306 286 293 240 c 1,22,-1
 294 249 l 1,23,-1
 293 237 l 2,24,25
 290 226 290 226 290 218 c 0,26,27
 290 198 290 198 309 193 c 0,28,29
 318 191 318 191 344 192 c 0,30,31
 391 195 391 195 403 239 c 1,32,-1
 405 242 l 2,14,15
556 689 m 2,33,34
 687 689 687 689 687 553 c 0,35,36
 687 539 687 539 685 523 c 1,37,-1
 139 523 l 1,38,39
 159 586 159 586 209 635 c 0,40,41
 265 689 265 689 326 689 c 2,42,-1
 556 689 l 2,33,34
EndSplineSet
EndChar

StartChar: seven
Encoding: 55 55 26
Width: 547
Flags: W
LayerCount: 2
Fore
SplineSet
576 524 m 1,0,-1
 56 524 l 1,1,-1
 161 690 l 1,2,-1
 621 690 l 1,3,-1
 576 524 l 1,0,-1
560 457 m 1,4,5
 508 405 508 405 458 333 c 0,6,7
 411 265 411 265 391 224 c 0,8,9
 361 159 361 159 351 133 c 0,10,11
 327 70 327 70 312 -1 c 1,12,-1
 84 -1 l 1,13,14
 111 118 111 118 164 224 c 0,15,16
 243 379 243 379 333 457 c 1,17,-1
 560 457 l 1,4,5
EndSplineSet
EndChar

StartChar: eight
Encoding: 56 56 27
Width: 638
Flags: W
LayerCount: 2
Fore
SplineSet
685 524 m 1,0,1
 685 584 685 584 665 621 c 0,2,3
 629 690 629 690 570 690 c 2,4,-1
 324 690 l 2,5,6
 258 690 258 690 196.5 639.5 c 128,-1,7
 135 589 135 589 115 524 c 1,8,-1
 685 524 l 1,0,1
108 457 m 1,9,10
 106 437 106 437 109 424 c 0,11,12
 116 386 116 386 136 364 c 1,13,14
 26 271 26 271 26 156 c 0,15,16
 26 36 26 36 137 -1 c 1,17,-1
 382 -1 l 1,18,19
 474 17 474 17 542.5 97.5 c 128,-1,20
 611 178 611 178 611 271 c 0,21,22
 611 325 611 325 582 363 c 1,23,24
 640 408 640 408 665 457 c 1,25,-1
 108 457 l 1,9,10
354 278 m 0,26,27
 413 278 413 278 413 239 c 0,28,29
 413 193 413 193 343 170 c 0,30,31
 321 163 321 163 298 163 c 0,32,33
 238 163 238 163 238 201 c 0,34,35
 238 221 238 221 258 240 c 0,36,37
 297 278 297 278 354 278 c 0,26,27
EndSplineSet
EndChar

StartChar: nine
Encoding: 57 57 28
Width: 644
Flags: W
LayerCount: 2
Fore
SplineSet
559 690 m 2,0,1
 690 690 690 690 690 554 c 0,2,3
 690 540 690 540 688 524 c 1,4,-1
 118 524 l 1,5,6
 137 587 137 587 189 636 c 0,7,8
 245 690 245 690 306 690 c 2,9,-1
 559 690 l 2,0,1
387 242 m 2,10,11
 375 199 375 199 329 195 c 0,12,13
 275 191 275 191 275 229 c 0,14,15
 275 236 275 236 276 240 c 2,16,-1
 279 252 l 1,17,-1
 48 252 l 1,18,19
 38 200 38 200 38 166 c 0,20,21
 38 52 38 52 131 15 c 0,22,23
 167 1 167 1 230 0 c 2,24,-1
 327 -1 l 1,25,26
 399 4 399 4 432 16 c 0,27,28
 489 37 489 37 541 95 c 0,29,30
 622 187 622 187 680 457 c 1,31,-1
 110 457 l 1,32,33
 106 424 106 424 106 421 c 0,34,35
 106 286 106 286 266 288 c 2,36,-1
 400 290 l 1,37,-1
 387 242 l 2,10,11
EndSplineSet
EndChar

StartChar: colon
Encoding: 58 58 29
Width: 379
Flags: W
LayerCount: 2
Fore
SplineSet
161 380 m 1,0,-1
 201 525 l 1,1,-1
 353 525 l 1,2,-1
 313 380 l 1,3,-1
 161 380 l 1,0,-1
55 0 m 1,4,-1
 96 146 l 1,5,-1
 248 146 l 1,6,-1
 207 0 l 1,7,-1
 55 0 l 1,4,-1
EndSplineSet
EndChar

StartChar: semicolon
Encoding: 59 59 30
Width: 404
Flags: W
LayerCount: 2
Fore
SplineSet
190 380 m 1,0,-1
 230 525 l 1,1,-1
 382 525 l 1,2,-1
 342 380 l 1,3,-1
 190 380 l 1,0,-1
43 -165 m 1,4,-1
 61 -113 l 1,5,6
 140 -109 140 -109 168 0 c 1,7,-1
 88 0 l 1,8,-1
 131 144 l 1,9,-1
 279 144 l 1,10,-1
 239 7 l 2,11,12
 190 -158 190 -158 43 -165 c 1,4,-1
EndSplineSet
EndChar

StartChar: less
Encoding: 60 60 31
Width: 833
Flags: W
LayerCount: 2
Fore
SplineSet
704 583 m 1,0,-1
 704 476 l 1,1,-1
 268 298 l 1,2,-1
 704 120 l 1,3,-1
 704 13 l 1,4,-1
 129 250 l 1,5,-1
 129 347 l 1,6,-1
 704 583 l 1,0,-1
EndSplineSet
EndChar

StartChar: equal
Encoding: 61 61 32
Width: 607
Flags: W
LayerCount: 2
Fore
SplineSet
548 208 m 1,0,-1
 100 208 l 1,1,-1
 136 334 l 1,2,-1
 585 334 l 1,3,-1
 548 208 l 1,0,-1
603 387 m 1,4,-1
 154 387 l 1,5,-1
 190 514 l 1,6,-1
 638 514 l 1,7,-1
 603 387 l 1,4,-1
EndSplineSet
EndChar

StartChar: greater
Encoding: 62 62 33
Width: 833
Flags: W
LayerCount: 2
Fore
SplineSet
129 583 m 1,0,-1
 704 347 l 1,1,-1
 704 250 l 1,2,-1
 129 13 l 1,3,-1
 129 120 l 1,4,-1
 566 298 l 1,5,-1
 129 476 l 1,6,-1
 129 583 l 1,0,-1
EndSplineSet
EndChar

StartChar: question
Encoding: 63 63 34
Width: 658
Flags: W
LayerCount: 2
Fore
SplineSet
611 413 m 0,0,1
 594 400 594 400 561 387 c 0,2,3
 541 379 541 379 486 357 c 0,4,5
 475 353 475 353 447 333 c 1,6,7
 429 313 429 313 428 311 c 0,8,9
 420 300 420 300 417 283 c 1,10,-1
 221 284 l 1,11,12
 252 360 252 360 278 391 c 0,13,14
 314 435 314 435 382 459 c 0,15,16
 463 487 463 487 468 527 c 0,17,18
 471 556 471 556 444 573 c 0,19,20
 421 587 421 587 391 587 c 0,21,22
 305 587 305 587 277 488 c 1,23,-1
 87 488 l 1,24,25
 141 720 141 720 415 720 c 0,26,27
 515 720 515 720 587 684 c 0,28,29
 678 637 678 637 678 546 c 0,30,31
 678 494 678 494 657 461 c 0,32,33
 650 451 650 451 611 413 c 0,0,1
350 0 m 1,34,-1
 128 0 l 1,35,-1
 185 173 l 1,36,-1
 404 173 l 1,37,-1
 350 0 l 1,34,-1
EndSplineSet
EndChar

StartChar: at
Encoding: 64 64 35
Width: 1000
Flags: W
LayerCount: 2
Fore
SplineSet
570 133 m 1,0,1
 518 53 518 53 425 53 c 0,2,3
 267 53 267 53 267 219 c 0,4,5
 267 329 267 329 329 408 c 0,6,7
 396 494 396 494 503 494 c 0,8,9
 581 494 581 494 618 430 c 1,10,-1
 644 478 l 1,11,-1
 731 478 l 1,12,-1
 659 186 l 2,13,14
 656 172 656 172 656 166 c 0,15,16
 656 132 656 132 702 132 c 0,17,18
 741 132 741 132 781 169 c 0,19,20
 866 249 866 249 866 375 c 0,21,22
 866 503 866 503 765 577 c 0,23,24
 674 643 674 643 542 643 c 0,25,26
 404 643 404 643 306 577 c 0,27,28
 134 461 134 461 134 255 c 0,29,30
 134 96 134 96 242 8 c 0,31,32
 343 -74 343 -74 505 -74 c 256,33,34
 667 -74 667 -74 800 19 c 1,35,-1
 840 -38 l 1,36,37
 690 -151 690 -151 507 -151 c 0,38,39
 316 -151 316 -151 195 -57 c 0,40,41
 44 59 44 59 44 254 c 0,42,43
 44 421 44 421 145 544 c 0,44,45
 292 723 292 723 545 723 c 0,46,47
 715 723 715 723 826 638 c 0,48,49
 957 538 957 538 957 373 c 256,50,51
 957 208 957 208 833 108 c 0,52,53
 763 52 763 52 675 52 c 0,54,55
 572 52 572 52 570 133 c 1,0,1
594 342 m 1,56,57
 581 423 581 423 509 423 c 0,58,59
 443 423 443 423 404 349 c 0,60,61
 371 288 371 288 371 217 c 0,62,63
 371 125 371 125 448 125 c 0,64,65
 493 125 493 125 526 159 c 0,66,67
 556 190 556 190 568 236 c 2,68,-1
 594 342 l 1,56,57
EndSplineSet
EndChar

StartChar: A
Encoding: 65 65 36
Width: 523
Flags: W
LayerCount: 2
Fore
SplineSet
460 524 m 1,0,-1
 423 690 l 1,1,-1
 172 690 l 1,2,-1
 24 524 l 1,3,-1
 460 524 l 1,0,-1
248 283 m 1,4,-1
 319 -1 l 1,5,-1
 570 -1 l 1,6,-1
 474 457 l 1,7,-1
 -13 457 l 1,8,-1
 -164 283 l 1,9,-1
 248 283 l 1,4,-1
EndSplineSet
EndChar

StartChar: B
Encoding: 66 66 37
Width: 787
Flags: W
LayerCount: 2
Fore
SplineSet
800 522 m 5,0,-1
 82 522 l 5,1,-1
 226 693 l 5,2,-1
 671 693 l 6,3,4
 802 693 802 693 802 552 c 4,5,6
 802 538 802 538 800 522 c 5,0,-1
794 456 m 5,7,8
 794 392 794 392 716 362 c 5,9,10
 745 313 745 313 747 310 c 4,11,12
 758 285 758 285 758 246 c 4,13,14
 758 242 758 242 758 226 c 4,15,16
 752 127 752 127 678 66 c 4,17,18
 621 17 621 17 554 0 c 5,19,-1
 8 1 l 5,20,-1
 141 456 l 5,21,-1
 794 456 l 5,7,8
479 220 m 4,22,23
 479 250 479 250 458 254 c 5,24,-1
 302 254 l 5,25,-1
 283 184 l 5,26,-1
 438 184 l 6,27,28
 452 184 452 184 465.5 195 c 132,-1,29
 479 206 479 206 479 220 c 4,22,23
EndSplineSet
EndChar

StartChar: L
Encoding: 76 76 47
Width: 1096
Flags: W
LayerCount: 2
Fore
SplineSet
375 525 m 1,0,-1
 129 525 l 1,1,-1
 177 688 l 1,2,-1
 422 689 l 1,3,-1
 375 525 l 1,0,-1
586 174 m 1,4,-1
 279 174 l 1,5,-1
 361 461 l 1,6,-1
 116 461 l 1,7,-1
 -6 0 l 1,8,-1
 449 0 l 1,9,-1
 586 174 l 1,4,-1
EndSplineSet
EndChar

StartChar: R
Encoding: 82 82 53
Width: 821
Flags: W
LayerCount: 2
Fore
SplineSet
866 524 m 1,0,-1
 91 524 l 1,1,-1
 197 690 l 1,2,-1
 766 690 l 2,3,4
 789 690 789 690 812.5 674 c 128,-1,5
 836 658 836 658 848 636 c 0,6,7
 866 603 866 603 866 524 c 1,0,-1
854 457 m 1,8,9
 846 396 846 396 784 342 c 0,10,11
 756 317 756 317 737 311 c 1,12,13
 760 275 760 275 760 235 c 0,14,15
 760 212 760 212 753 170 c 0,16,17
 749 144 749 144 701 1 c 1,18,-1
 477 1 l 1,19,-1
 557 276 l 1,20,-1
 321 276 l 1,21,-1
 236 1 l 1,22,-1
 3 1 l 1,23,-1
 137 457 l 1,24,-1
 854 457 l 1,8,9
EndSplineSet
EndChar

StartChar: bracketleft
Encoding: 91 91 62
Width: 421
Flags: W
LayerCount: 2
Fore
SplineSet
122 -130 m 1,0,-1
 219 -130 l 1,1,-1
 196 -207 l 1,2,-1
 31 -207 l 1,3,-1
 213 457 l 1,4,-1
 283 457 l 1,5,-1
 122 -130 l 1,0,-1
331 646 m 1,6,-1
 428 645 l 1,7,-1
 452 718 l 1,8,-1
 279 716 l 1,9,-1
 231 524 l 1,10,-1
 299 524 l 1,11,-1
 331 646 l 1,6,-1
EndSplineSet
EndChar

StartChar: backslash
Encoding: 92 92 63
Width: 470
Flags: W
LayerCount: 2
Fore
SplineSet
276 -12 m 1,0,-1
 106 728 l 1,1,-1
 194 729 l 1,2,-1
 364 -11 l 1,3,-1
 276 -12 l 1,0,-1
EndSplineSet
EndChar

StartChar: bracketright
Encoding: 93 93 64
Width: 376
Flags: W
LayerCount: 2
Fore
SplineSet
114 -130 m 1,0,-1
 19 -130 l 1,1,-1
 1 -206 l 1,2,-1
 163 -206 l 1,3,-1
 338 456 l 1,4,-1
 274 456 l 1,5,-1
 114 -130 l 1,0,-1
396 709 m 1,6,-1
 239 709 l 1,7,-1
 224 637 l 1,8,-1
 318 637 l 1,9,-1
 288 523 l 1,10,-1
 351 524 l 1,11,-1
 396 709 l 1,6,-1
EndSplineSet
EndChar

StartChar: asciicircum
Encoding: 94 94 65
Width: 1000
Flags: W
LayerCount: 2
Fore
SplineSet
438 713 m 1,0,-1
 561 713 l 1,1,-1
 796 439 l 1,2,-1
 681 439 l 1,3,-1
 500 620 l 1,4,-1
 318 439 l 1,5,-1
 203 439 l 1,6,-1
 438 713 l 1,0,-1
EndSplineSet
EndChar

StartChar: underscore
Encoding: 95 95 66
Width: 500
Flags: W
LayerCount: 2
Fore
SplineSet
0 -136 m 1,0,-1
 500 -136 l 1,1,-1
 500 -236 l 1,2,-1
 0 -236 l 1,3,-1
 0 -136 l 1,0,-1
EndSplineSet
EndChar

StartChar: grave
Encoding: 96 96 67
Width: 240
Flags: W
LayerCount: 2
Fore
SplineSet
194 703 m 1,0,-1
 371 703 l 1,1,-1
 265 429 l 1,2,-1
 88 429 l 1,3,-1
 194 703 l 1,0,-1
EndSplineSet
EndChar

StartChar: a
Encoding: 97 97 68
Width: 768
Flags: W
LayerCount: 2
Fore
SplineSet
689 522 m 1,0,-1
 257 522 l 1,1,-1
 401 690 l 1,2,-1
 653 690 l 1,3,-1
 689 522 l 1,0,-1
801 1 m 1,4,-1
 550 1 l 1,5,-1
 482 273 l 1,6,-1
 340 273 l 1,7,-1
 139 1 l 1,8,-1
 -154 1 l 1,9,-1
 204 458 l 1,10,-1
 703 458 l 1,11,-1
 801 1 l 1,4,-1
EndSplineSet
EndChar

StartChar: b
Encoding: 98 98 69
Width: 787
Flags: W
LayerCount: 2
Fore
SplineSet
800 522 m 5,0,-1
 82 522 l 5,1,-1
 226 693 l 5,2,-1
 671 693 l 6,3,4
 802 693 802 693 802 552 c 4,5,6
 802 538 802 538 800 522 c 5,0,-1
794 456 m 5,7,8
 794 392 794 392 716 362 c 5,9,10
 745 313 745 313 747 310 c 4,11,12
 758 285 758 285 758 246 c 4,13,14
 758 242 758 242 758 226 c 4,15,16
 752 127 752 127 678 66 c 4,17,18
 621 17 621 17 554 0 c 5,19,-1
 8 1 l 5,20,-1
 141 456 l 5,21,-1
 794 456 l 5,7,8
479 220 m 4,22,23
 479 250 479 250 458 254 c 5,24,-1
 302 254 l 5,25,-1
 283 184 l 5,26,-1
 438 184 l 6,27,28
 452 184 452 184 465.5 195 c 132,-1,29
 479 206 479 206 479 220 c 4,22,23
EndSplineSet
EndChar

StartChar: c
Encoding: 99 99 70
Width: 720
Flags: W
LayerCount: 2
Fore
SplineSet
771 690 m 1,0,-1
 722 522 l 1,1,-1
 123 522 l 1,2,3
 142 586 142 586 193 635 c 0,4,5
 250 690 250 690 311 690 c 2,6,-1
 771 690 l 1,0,-1
629 185 m 1,7,-1
 577 -1 l 1,8,-1
 260 -1 l 2,9,10
 95 -1 95 -1 50 104 c 0,11,12
 36 136 36 136 41 193 c 0,13,14
 42 204 42 204 45 233 c 1,15,-1
 104 456 l 1,16,-1
 352 457 l 1,17,-1
 280 236 l 1,18,19
 283 223 283 223 286 209 c 0,20,21
 295 191 295 191 323 185 c 1,22,-1
 629 185 l 1,7,-1
EndSplineSet
EndChar

StartChar: d
Encoding: 100 100 71
Width: 769
Flags: W
LayerCount: 2
Fore
SplineSet
788 522 m 1,0,-1
 95 522 l 1,1,-1
 202 690 l 1,2,-1
 605 690 l 2,3,4
 671 690 671 690 728 638.5 c 128,-1,5
 785 587 785 587 788 522 c 1,0,-1
800 457 m 1,6,7
 800 281 800 281 732 181 c 0,8,9
 677 100 677 100 632 66 c 0,10,11
 542 -1 542 -1 405 -1 c 2,12,-1
 8 -1 l 1,13,-1
 139 457 l 1,14,-1
 385 457 l 1,15,-1
 302 178 l 1,16,17
 326 168 326 168 353 168 c 0,18,19
 403 168 403 168 457 199 c 0,20,21
 544 248 544 248 571 340 c 0,22,23
 585 387 585 387 587 457 c 1,24,-1
 800 457 l 1,6,7
EndSplineSet
EndChar

StartChar: e
Encoding: 101 101 72
Width: 719
Flags: W
LayerCount: 2
Fore
SplineSet
775 690 m 1,0,-1
 731 522 l 1,1,-1
 79 522 l 1,2,-1
 187 690 l 1,3,-1
 775 690 l 1,0,-1
710 457 m 1,4,-1
 662 275 l 1,5,-1
 337 275 l 1,6,-1
 311 181 l 1,7,-1
 633 181 l 1,8,-1
 585 1 l 1,9,-1
 -2 1 l 1,10,-1
 120 457 l 1,11,-1
 710 457 l 1,4,-1
EndSplineSet
EndChar

StartChar: f
Encoding: 102 102 73
Width: 680
Flags: W
LayerCount: 2
Fore
SplineSet
763 690 m 1,0,-1
 715 522 l 1,1,-1
 66 522 l 1,2,-1
 173 690 l 1,3,-1
 763 690 l 1,0,-1
701 457 m 1,4,-1
 646 274 l 1,5,-1
 325 274 l 1,6,-1
 250 1 l 1,7,-1
 -13 1 l 1,8,-1
 114 457 l 1,9,-1
 701 457 l 1,4,-1
EndSplineSet
EndChar

StartChar: g
Encoding: 103 103 74
Width: 775
Flags: W
LayerCount: 2
Fore
SplineSet
817 690 m 1,0,-1
 776 523 l 1,1,-1
 123 523 l 1,2,3
 141 581 141 581 193 633 c 0,4,5
 250 690 250 690 312 690 c 2,6,-1
 817 690 l 1,0,-1
758 432 m 1,7,-1
 705 236 l 2,8,9
 683 156 683 156 638 103 c 0,10,11
 551 1 551 1 385 1 c 2,12,-1
 265 1 l 2,13,14
 91 1 91 1 52 100 c 0,15,16
 36 140 36 140 36 173 c 0,17,18
 36 200 36 200 46 237 c 2,19,-1
 108 457 l 1,20,-1
 344 457 l 1,21,-1
 285 251 l 2,22,23
 280 234 280 234 280 226 c 0,24,25
 280 206 280 206 300 200 c 1,26,-1
 442 200 l 1,27,28
 472 208 472 208 482 251 c 2,29,-1
 484 263 l 1,30,-1
 336 261 l 1,31,-1
 442 432 l 1,32,-1
 758 432 l 1,7,-1
EndSplineSet
EndChar

StartChar: h
Encoding: 104 104 75
Width: 753
Flags: W
LayerCount: 2
Fore
SplineSet
810 690 m 1,0,-1
 766 522 l 1,1,-1
 522 522 l 1,2,-1
 569 690 l 1,3,-1
 810 690 l 1,0,-1
389 690 m 1,4,-1
 344 522 l 1,5,-1
 104 522 l 1,6,-1
 148 690 l 1,7,-1
 389 690 l 1,4,-1
746 457 m 1,8,-1
 622 0 l 1,9,-1
 380 0 l 1,10,-1
 452 276 l 1,11,-1
 277 276 l 1,12,-1
 200 1 l 1,13,-1
 -45 1 l 1,14,-1
 81 457 l 1,15,-1
 746 457 l 1,8,-1
EndSplineSet
EndChar

StartChar: i
Encoding: 105 105 76
Width: 347
Flags: W
LayerCount: 2
Fore
SplineSet
408 690 m 1,0,-1
 362 522 l 1,1,-1
 121 522 l 1,2,-1
 169 690 l 1,3,-1
 408 690 l 1,0,-1
347 457 m 1,4,-1
 222 1 l 1,5,-1
 -21 1 l 1,6,-1
 106 457 l 1,7,-1
 347 457 l 1,4,-1
EndSplineSet
EndChar

StartChar: j
Encoding: 106 106 77
Width: 757
Flags: W
LayerCount: 2
Fore
SplineSet
812 690 m 1,0,-1
 766 522 l 1,1,-1
 534 522 l 1,2,-1
 581 690 l 1,3,-1
 812 690 l 1,0,-1
749 457 m 1,4,5
 708 294 708 294 692 246 c 0,6,7
 660 148 660 148 616 102 c 0,8,9
 524 1 524 1 363 1 c 2,10,-1
 245 1 l 2,11,12
 75 1 75 1 34 102 c 0,13,14
 24 126 24 126 24 163 c 0,15,16
 24 206 24 206 37 266 c 1,17,-1
 268 266 l 1,18,-1
 252 208 l 2,19,20
 247 188 247 188 247 183 c 0,21,22
 247 163 247 163 267 157 c 1,23,-1
 409 157 l 1,24,25
 437 164 437 164 449 208 c 2,26,-1
 519 457 l 1,27,-1
 749 457 l 1,4,5
EndSplineSet
EndChar

StartChar: k
Encoding: 107 107 78
Width: 848
Flags: W
LayerCount: 2
Fore
SplineSet
908 688 m 1,0,-1
 749 524 l 1,1,-1
 459 524 l 1,2,-1
 622 688 l 1,3,-1
 908 688 l 1,0,-1
442 690 m 1,4,-1
 395 522 l 1,5,-1
 157 522 l 1,6,-1
 205 690 l 1,7,-1
 442 690 l 1,4,-1
719 1 m 1,8,-1
 470 1 l 1,9,-1
 329 279 l 1,10,-1
 249 1 l 1,11,-1
 7 1 l 1,12,-1
 139 457 l 1,13,-1
 688 457 l 1,14,-1
 554 322 l 1,15,-1
 719 1 l 1,8,-1
EndSplineSet
EndChar

StartChar: l
Encoding: 108 108 79
Width: 601
Flags: W
LayerCount: 2
Fore
SplineSet
432 690 m 1,0,-1
 382 523 l 1,1,-1
 140 523 l 1,2,-1
 186 688 l 1,3,-1
 432 690 l 1,0,-1
620 171 m 1,4,-1
 480 1 l 1,5,-1
 -6 1 l 1,6,-1
 123 457 l 1,7,-1
 366 457 l 1,8,-1
 286 172 l 1,9,-1
 620 171 l 1,4,-1
EndSplineSet
EndChar

StartChar: m
Encoding: 109 109 80
Width: 916
Flags: W
LayerCount: 2
Fore
SplineSet
984 690 m 1,0,-1
 937 522 l 1,1,-1
 145 522 l 1,2,-1
 192 690 l 1,3,-1
 426 690 l 1,4,-1
 565 557 l 1,5,-1
 735 690 l 1,6,-1
 984 690 l 1,0,-1
921 457 m 1,7,-1
 792 1 l 1,8,-1
 543 1 l 1,9,-1
 657 411 l 1,10,-1
 488 274 l 1,11,-1
 348 411 l 1,12,-1
 232 1 l 1,13,-1
 1 1 l 1,14,-1
 128 457 l 1,15,-1
 921 457 l 1,7,-1
EndSplineSet
EndChar

StartChar: n
Encoding: 110 110 81
Width: 740
Flags: W
LayerCount: 2
Fore
SplineSet
822 690 m 1,0,-1
 772 523 l 1,1,-1
 117 523 l 1,2,-1
 164 690 l 1,3,-1
 391 690 l 1,4,-1
 539 549 l 1,5,-1
 575 690 l 1,6,-1
 822 690 l 1,0,-1
759 457 m 1,7,-1
 637 1 l 1,8,-1
 386 1 l 1,9,-1
 463 278 l 1,10,-1
 317 411 l 1,11,-1
 201 0 l 1,12,-1
 -28 0 l 1,13,-1
 97 457 l 1,14,-1
 759 457 l 1,7,-1
EndSplineSet
EndChar

StartChar: o
Encoding: 111 111 82
Width: 731
Flags: W
LayerCount: 2
Fore
SplineSet
788 522 m 2,0,-1
 129 522 l 1,1,2
 149 590 149 590 197 637 c 0,3,4
 256 694 256 694 319 694 c 2,5,-1
 659 694 l 2,6,7
 788 694 788 694 788 557 c 0,8,9
 788 523 788 523 788 522 c 2,0,-1
774 458 m 1,10,-1
 770 442 l 2,11,12
 754 390 754 390 715 252 c 0,13,14
 690 165 690 165 638 106 c 0,15,16
 544 0 544 0 386 0 c 2,17,-1
 267 0 l 2,18,19
 171 0 171 0 115 36 c 0,20,21
 46 79 46 79 46 169 c 0,22,23
 46 217 46 217 61 271 c 2,24,-1
 111 456 l 1,25,-1
 344 456 l 1,26,-1
 275 213 l 2,27,28
 271 196 271 196 271 187 c 0,29,30
 271 167 271 167 289 162 c 1,31,-1
 434 162 l 1,32,33
 461 169 461 169 474 213 c 2,34,-1
 546 457 l 1,35,-1
 774 458 l 1,10,-1
EndSplineSet
EndChar

StartChar: p
Encoding: 112 112 83
Width: 835
Flags: W
LayerCount: 2
Fore
SplineSet
896 523 m 1,0,-1
 127 523 l 1,1,-1
 230 690 l 1,2,-1
 795 690 l 2,3,4
 818 690 818 690 842 674 c 128,-1,5
 866 658 866 658 877 636 c 0,6,7
 896 601 896 601 896 523 c 1,0,-1
878 457 m 1,8,9
 874 432 874 432 859 399 c 0,10,11
 800 276 800 276 577 276 c 2,12,-1
 347 276 l 1,13,-1
 270 1 l 1,14,-1
 41 1 l 1,15,-1
 166 456 l 1,16,-1
 878 457 l 1,8,9
EndSplineSet
EndChar

StartChar: q
Encoding: 113 113 84
Width: 761
Flags: W
LayerCount: 2
Fore
SplineSet
780 524 m 1,0,-1
 120 524 l 1,1,2
 139 586 139 586 190 636 c 0,3,4
 247 690 247 690 308 690 c 2,5,-1
 650 690 l 2,6,7
 781 690 781 690 781 553 c 0,8,9
 781 539 781 539 780 524 c 1,0,-1
763 457 m 1,10,-1
 718 273 l 2,11,12
 692 168 692 168 633 104 c 0,13,14
 631 102 631 102 620 94 c 1,15,-1
 699 -1 l 1,16,-1
 519 -1 l 1,17,-1
 499 21 l 1,18,19
 438 0 438 0 379 0 c 2,20,-1
 262 0 l 2,21,22
 92 0 92 0 51 104 c 0,23,24
 41 130 41 130 41 171 c 0,25,26
 41 219 41 219 54 270 c 2,27,-1
 104 457 l 1,28,-1
 339 457 l 1,29,-1
 269 210 l 2,30,31
 264 193 264 193 264 186 c 0,32,33
 264 166 264 166 284 160 c 1,34,-1
 379 160 l 1,35,-1
 296 255 l 1,36,-1
 479 255 l 1,37,-1
 533 457 l 1,38,-1
 763 457 l 1,10,-1
EndSplineSet
EndChar

StartChar: r
Encoding: 114 114 85
Width: 821
Flags: W
LayerCount: 2
Fore
SplineSet
866 524 m 5,0,-1
 91 524 l 5,1,-1
 197 690 l 5,2,-1
 766 690 l 6,3,4
 789 690 789 690 812.5 674 c 132,-1,5
 836 658 836 658 848 636 c 4,6,7
 866 603 866 603 866 524 c 5,0,-1
854 457 m 5,8,9
 846 396 846 396 784 342 c 4,10,11
 756 317 756 317 737 311 c 5,12,13
 760 275 760 275 760 235 c 4,14,15
 760 212 760 212 753 170 c 4,16,17
 749 144 749 144 701 1 c 5,18,-1
 477 1 l 5,19,-1
 557 276 l 5,20,-1
 321 276 l 5,21,-1
 236 1 l 5,22,-1
 3 1 l 5,23,-1
 137 457 l 5,24,-1
 854 457 l 5,8,9
EndSplineSet
EndChar

StartChar: s
Encoding: 115 115 86
Width: 775
Flags: W
LayerCount: 2
Fore
SplineSet
833 690 m 1,0,-1
 788 524 l 1,1,-1
 140 524 l 1,2,3
 161 588 161 588 217 637 c 0,4,5
 278 690 278 690 341 690 c 2,6,-1
 833 690 l 1,0,-1
664 64 m 0,7,8
 624 23 624 23 540 0 c 1,9,-1
 -6 1 l 1,10,-1
 47 191 l 1,11,-1
 425 189 l 1,12,13
 474 195 474 195 474 237 c 0,14,15
 474 262 474 262 467.5 271 c 128,-1,16
 461 280 461 280 437 288 c 1,17,-1
 244 288 l 2,18,19
 181 288 181 288 152 319.5 c 128,-1,20
 123 351 123 351 123 422 c 0,21,22
 123 457 123 457 123 457 c 1,23,-1
 565 457 l 1,24,25
 646 447 646 447 674 425 c 0,26,27
 678 422 678 422 728 366 c 1,28,29
 747 318 747 318 747 257 c 0,30,31
 747 146 747 146 664 64 c 0,7,8
EndSplineSet
EndChar

StartChar: t
Encoding: 116 116 87
Width: 731
Flags: W
LayerCount: 2
Fore
SplineSet
804 690 m 1,0,-1
 758 524 l 1,1,-1
 92 524 l 1,2,-1
 198 690 l 1,3,-1
 804 690 l 1,0,-1
545 457 m 1,4,-1
 424 1 l 1,5,-1
 195 1 l 1,6,-1
 319 457 l 1,7,-1
 545 457 l 1,4,-1
EndSplineSet
EndChar

StartChar: u
Encoding: 117 117 88
Width: 742
Flags: W
LayerCount: 2
Fore
SplineSet
808 687 m 1,0,-1
 761 522 l 1,1,-1
 533 522 l 1,2,-1
 579 687 l 1,3,-1
 808 687 l 1,0,-1
392 687 m 1,4,-1
 346 522 l 1,5,-1
 121 522 l 1,6,-1
 168 686 l 1,7,-1
 392 687 l 1,4,-1
745 457 m 1,8,-1
 619 1 l 1,9,-1
 253 0 l 2,10,11
 81 0 81 0 40 103 c 0,12,13
 29 131 29 131 29 159 c 0,14,15
 29 175 29 175 33 189 c 2,16,-1
 107 457 l 1,17,-1
 329 457 l 1,18,-1
 258 209 l 2,19,20
 253 192 253 192 253 184 c 0,21,22
 253 164 253 164 273 158 c 1,23,-1
 433 158 l 1,24,-1
 517 457 l 1,25,-1
 745 457 l 1,8,-1
EndSplineSet
EndChar

StartChar: v
Encoding: 118 118 89
Width: 921
Flags: W
LayerCount: 2
Fore
SplineSet
1060 688 m 1,0,-1
 932 524 l 1,1,-1
 609 524 l 1,2,-1
 728 690 l 1,3,-1
 1060 688 l 1,0,-1
391 524 m 1,4,-1
 134 524 l 1,5,-1
 100 690 l 1,6,-1
 351 690 l 1,7,-1
 391 524 l 1,4,-1
875 458 m 1,8,-1
 492 1 l 1,9,-1
 241 1 l 1,10,-1
 146 458 l 1,11,-1
 405 458 l 1,12,-1
 442 305 l 1,13,-1
 551 457 l 1,14,-1
 875 458 l 1,8,-1
EndSplineSet
EndChar

StartChar: w
Encoding: 119 119 90
Width: 906
Flags: W
LayerCount: 2
Fore
SplineSet
973 689 m 1,0,-1
 932 523 l 1,1,-1
 695 523 l 1,2,-1
 743 689 l 1,3,-1
 973 689 l 1,0,-1
434 690 m 1,4,-1
 388 523 l 1,5,-1
 142 523 l 1,6,-1
 189 690 l 1,7,-1
 434 690 l 1,4,-1
912 457 m 1,8,-1
 785 0 l 1,9,-1
 553 1 l 1,10,-1
 410 130 l 1,11,-1
 239 1 l 1,12,-1
 0 0 l 1,13,-1
 127 457 l 1,14,-1
 372 457 l 1,15,-1
 321 289 l 1,16,-1
 491 425 l 1,17,-1
 628 289 l 1,18,-1
 678 457 l 1,19,-1
 912 457 l 1,8,-1
EndSplineSet
EndChar

StartChar: x
Encoding: 120 120 91
Width: 739
Flags: W
LayerCount: 2
Fore
SplineSet
878 689 m 1,0,-1
 717 523 l 1,1,-1
 233 524 l 1,2,-1
 193 687 l 1,3,-1
 444 687 l 1,4,-1
 463 609 l 1,5,-1
 537 688 l 1,6,-1
 878 689 l 1,0,-1
655 457 m 1,7,-1
 534 324 l 1,8,-1
 602 0 l 1,9,-1
 342 1 l 1,10,-1
 323 85 l 1,11,-1
 248 0 l 1,12,-1
 -91 0 l 1,13,-1
 260 388 l 1,14,-1
 246 455 l 1,15,-1
 655 457 l 1,7,-1
EndSplineSet
EndChar

StartChar: y
Encoding: 121 121 92
Width: 633
Flags: W
LayerCount: 2
Fore
SplineSet
763 692 m 1,0,-1
 612 523 l 1,1,-1
 123 523 l 1,2,-1
 87 689 l 1,3,-1
 338 689 l 1,4,-1
 357 612 l 1,5,-1
 431 693 l 1,6,-1
 763 692 l 1,0,-1
549 457 m 1,7,-1
 427 326 l 1,8,-1
 338 1 l 1,9,-1
 76 1 l 1,10,-1
 169 328 l 1,11,-1
 140 455 l 1,12,-1
 549 457 l 1,7,-1
EndSplineSet
EndChar

StartChar: z
Encoding: 122 122 93
Width: 748
Flags: W
LayerCount: 2
Fore
SplineSet
804 691 m 1,0,-1
 761 524 l 1,1,-1
 97 524 l 1,2,-1
 205 690 l 1,3,-1
 804 691 l 1,0,-1
749 458 m 1,4,-1
 376 185 l 1,5,-1
 669 185 l 1,6,-1
 618 1 l 1,7,-1
 16 1 l 1,8,-1
 70 187 l 1,9,-1
 462 457 l 1,10,-1
 749 458 l 1,4,-1
EndSplineSet
EndChar

StartChar: braceleft
Encoding: 123 123 94
Width: 347
Flags: W
LayerCount: 2
Fore
SplineSet
231 384 m 0,0,1
 196 301 196 301 122 266 c 1,2,3
 169 236 169 236 170 167 c 0,4,5
 170 125 170 125 149 43 c 0,6,7
 123 -63 123 -63 121 -83 c 0,8,9
 119 -112 119 -112 132 -121.5 c 128,-1,10
 145 -131 145 -131 174 -132 c 2,11,-1
 187 -133 l 1,12,-1
 167 -209 l 1,13,-1
 145 -209 l 2,14,15
 79 -208 79 -208 60 -166 c 0,16,17
 44 -133 44 -133 56 -66 c 0,18,19
 57 -57 57 -57 80 36 c 0,20,21
 97 106 97 106 100 126 c 0,22,23
 102 141 102 141 102 155 c 0,24,25
 102 224 102 224 45 229 c 1,26,-1
 65 308 l 1,27,28
 124 307 124 307 157 372 c 0,29,30
 182 420 182 420 193 458 c 1,31,-1
 256 458 l 1,32,33
 244 415 244 415 231 384 c 0,0,1
272 524 m 1,34,-1
 280 555 l 2,35,36
 294 610 294 610 307 627 c 0,37,38
 328 655 328 655 375 653 c 2,39,-1
 387 652 l 1,40,-1
 407 729 l 1,41,-1
 384 729 l 2,42,43
 343 730 343 730 320 722 c 0,44,45
 263 701 263 701 230 612 c 0,46,47
 224 594 224 594 206 523 c 1,48,-1
 272 523 l 1,49,-1
 272 524 l 1,34,-1
EndSplineSet
EndChar

StartChar: bar
Encoding: 124 124 95
Width: 500
Flags: W
LayerCount: 2
Fore
SplineSet
200 764 m 1,0,-1
 301 764 l 1,1,-1
 301 -236 l 1,2,-1
 200 -236 l 1,3,-1
 200 764 l 1,0,-1
EndSplineSet
EndChar

StartChar: braceright
Encoding: 125 125 96
Width: 241
Flags: W
LayerCount: 2
Fore
SplineSet
131 354 m 0,0,1
 134 291 134 291 182 259 c 1,2,3
 112 227 112 227 77 139 c 0,4,5
 62 104 62 104 31 -33 c 0,6,7
 18 -88 18 -88 6 -105 c 0,8,9
 -14 -134 -14 -134 -61 -134 c 2,10,-1
 -74 -134 l 1,11,-1
 -91 -210 l 1,12,-1
 -69 -210 l 2,13,14
 -30 -210 -30 -210 -4 -200 c 0,15,16
 52 -177 52 -177 83 -87 c 0,17,18
 91 -63 91 -63 112 34 c 0,19,20
 130 114 130 114 149 151 c 0,21,22
 183 217 183 217 240 219 c 1,23,-1
 258 299 l 1,24,25
 199 300 199 300 199 373 c 0,26,27
 199 395 199 395 213 459 c 1,28,-1
 145 459 l 1,29,30
 129 386 129 386 131 354 c 0,0,1
159 524 m 1,31,32
 174 590 174 590 175 605 c 0,33,34
 176 633 176 633 161 643 c 0,35,36
 150 651 150 651 120 651 c 2,37,-1
 107 651 l 1,38,-1
 125 728 l 1,39,-1
 147 728 l 2,40,41
 245 728 245 728 245 634 c 0,42,43
 245 614 245 614 240 590 c 0,44,45
 237 573 237 573 226 524 c 1,46,-1
 159 524 l 1,31,32
EndSplineSet
EndChar

StartChar: asciitilde
Encoding: 126 126 97
Width: 833
Flags: W
LayerCount: 2
Fore
SplineSet
747 392 m 1,0,-1
 747 284 l 1,1,2
 648 217 648 217 562 217 c 0,3,4
 516 217 516 217 472 232 c 0,5,6
 463 235 463 235 438 244 c 0,7,8
 332 281 332 281 275 281 c 0,9,10
 194 281 194 281 87 204 c 1,11,-1
 87 312 l 1,12,13
 191 382 191 382 276 382 c 0,14,15
 333 382 333 382 418 354 c 0,16,17
 419 353 419 353 420 353 c 2,18,-1
 447 344 l 2,19,20
 525 317 525 317 564 317 c 0,21,22
 644 317 644 317 747 392 c 1,0,-1
EndSplineSet
EndChar

StartChar: exclamdown
Encoding: 161 161 98
Width: 330
Flags: W
LayerCount: 2
Fore
SplineSet
301 719 m 1,0,-1
 277 573 l 1,1,-1
 128 573 l 1,2,-1
 151 719 l 1,3,-1
 301 719 l 1,0,-1
230 498 m 1,4,-1
 181 0 l 1,5,-1
 28 0 l 1,6,-1
 155 498 l 1,7,-1
 230 498 l 1,4,-1
EndSplineSet
EndChar

StartChar: cent
Encoding: 162 162 99
Width: 597
Flags: W
LayerCount: 2
Fore
SplineSet
595 379 m 0,0,1
 595 358 595 358 592 335 c 2,2,-1
 589 312 l 1,3,-1
 405 312 l 1,4,-1
 407 326 l 2,5,6
 408 333 408 333 408 345 c 0,7,8
 408 384 408 384 362 384 c 2,9,-1
 340 384 l 2,10,11
 303 384 303 384 289 358 c 0,12,13
 283 346 283 346 277 297 c 2,14,-1
 268 218 l 2,15,16
 264 183 264 183 264 170 c 0,17,18
 264 131 264 131 309 131 c 2,19,-1
 331 131 l 2,20,21
 385 131 385 131 391 194 c 2,22,-1
 393 215 l 1,23,-1
 577 215 l 1,24,-1
 574 182 l 2,25,26
 565 78 565 78 503 34 c 0,27,28
 448 -6 448 -6 339 -6 c 1,29,-1
 326 -118 l 1,30,-1
 246 -118 l 1,31,-1
 259 -6 l 1,32,33
 167 -6 167 -6 125 25 c 0,34,35
 75 61 75 61 75 150 c 0,36,37
 75 176 75 176 79 207 c 2,38,-1
 92 309 l 2,39,40
 107 423 107 423 159 472.5 c 128,-1,41
 211 522 211 522 324 522 c 1,42,-1
 335 613 l 1,43,-1
 415 613 l 1,44,-1
 404 522 l 1,45,46
 493 522 493 522 538 496 c 0,47,48
 595 462 595 462 595 379 c 0,0,1
EndSplineSet
EndChar

StartChar: sterling
Encoding: 163 163 100
Width: 729
Flags: W
LayerCount: 2
Fore
SplineSet
750 583 m 0,0,1
 750 571 750 571 749 562 c 2,2,-1
 742 501 l 1,3,-1
 547 501 l 1,4,-1
 551 536 l 2,5,6
 555 575 555 575 508 575 c 2,7,-1
 474 575 l 2,8,9
 426 575 426 575 421 534 c 2,10,-1
 407 426 l 1,11,-1
 594 426 l 1,12,-1
 576 280 l 1,13,-1
 389 280 l 1,14,15
 379 210 379 210 336 176 c 1,16,-1
 717 176 l 1,17,-1
 695 0 l 1,18,-1
 87 0 l 1,19,-1
 109 176 l 1,20,21
 173 176 173 176 179 226 c 2,22,-1
 185 280 l 1,23,-1
 103 280 l 1,24,-1
 121 426 l 1,25,-1
 203 426 l 1,26,-1
 215 523 l 2,27,28
 228 628 228 628 300 683 c 0,29,30
 368 736 368 736 476 736 c 2,31,-1
 528 736 l 2,32,33
 617 736 617 736 676 704 c 0,34,35
 750 664 750 664 750 583 c 0,0,1
EndSplineSet
EndChar

StartChar: currency
Encoding: 164 164 101
Width: 606
Flags: W
LayerCount: 2
Fore
SplineSet
304 567 m 256,0,1
 248 567 248 567 208.5 527.5 c 128,-1,2
 169 488 169 488 169 432 c 0,3,4
 169 375 169 375 208 336.5 c 128,-1,5
 247 298 247 298 304 298 c 256,6,7
 361 298 361 298 400 337 c 128,-1,8
 439 376 439 376 439 432 c 256,9,10
 439 488 439 488 399.5 527.5 c 128,-1,11
 360 567 360 567 304 567 c 256,0,1
84 702 m 1,12,-1
 184 603 l 1,13,14
 237 641 237 641 303 641 c 0,15,16
 371 641 371 641 424 603 c 1,17,-1
 523 702 l 1,18,-1
 574 650 l 1,19,-1
 475 550 l 1,20,21
 512 498 512 498 512 432 c 0,22,23
 512 368 512 368 475 314 c 1,24,-1
 574 214 l 1,25,-1
 523 163 l 1,26,-1
 424 262 l 1,27,28
 373 224 373 224 304 224 c 0,29,30
 234 224 234 224 184 262 c 1,31,-1
 84 163 l 1,32,-1
 33 214 l 1,33,-1
 132 314 l 1,34,35
 95 366 95 366 95 432 c 0,36,37
 95 499 95 499 132 550 c 1,38,-1
 33 650 l 1,39,-1
 84 702 l 1,12,-1
EndSplineSet
EndChar

StartChar: yen
Encoding: 165 165 102
Width: 719
Flags: W
LayerCount: 2
Fore
SplineSet
816 727 m 1,0,-1
 629 445 l 1,1,-1
 694 445 l 1,2,-1
 681 345 l 1,3,-1
 562 345 l 1,4,-1
 522 285 l 1,5,-1
 634 285 l 1,6,-1
 623 195 l 1,7,-1
 495 195 l 1,8,-1
 471 0 l 1,9,-1
 256 0 l 1,10,-1
 280 195 l 1,11,-1
 139 195 l 1,12,-1
 150 285 l 1,13,-1
 275 285 l 1,14,-1
 249 345 l 1,15,-1
 117 345 l 1,16,-1
 130 445 l 1,17,-1
 208 445 l 1,18,-1
 88 727 l 1,19,-1
 331 727 l 1,20,-1
 422 468 l 1,21,-1
 575 727 l 1,22,-1
 816 727 l 1,0,-1
EndSplineSet
EndChar

StartChar: brokenbar
Encoding: 166 166 103
Width: 500
Flags: W
LayerCount: 2
Fore
SplineSet
200 199 m 1,0,-1
 301 199 l 1,1,-1
 301 -171 l 1,2,-1
 200 -171 l 1,3,-1
 200 199 l 1,0,-1
200 699 m 1,4,-1
 301 699 l 1,5,-1
 301 329 l 1,6,-1
 200 329 l 1,7,-1
 200 699 l 1,4,-1
EndSplineSet
EndChar

StartChar: section
Encoding: 167 167 104
Width: 550
Flags: W
LayerCount: 2
Fore
SplineSet
538 276 m 0,0,1
 538 184 538 184 476 132 c 1,2,3
 512 99 512 99 512 44 c 0,4,5
 512 -67 512 -67 421 -113 c 0,6,7
 364 -142 364 -142 286 -142 c 0,8,9
 192 -142 192 -142 128 -97 c 0,10,11
 56 -47 56 -47 56 44 c 1,12,-1
 190 44 l 1,13,14
 190 -36 190 -36 294 -36 c 0,15,16
 376 -36 376 -36 376 22 c 0,17,18
 376 54 376 54 290 74 c 0,19,20
 164 104 164 104 129 120 c 0,21,22
 42 161 42 161 42 242 c 0,23,24
 42 336 42 336 104 384 c 1,25,26
 68 416 68 416 68 474 c 0,27,28
 68 569 68 569 136 617 c 0,29,30
 195 658 195 658 294 658 c 0,31,32
 389 658 389 658 452 614 c 0,33,34
 524 565 524 565 524 474 c 1,35,-1
 390 474 l 1,36,37
 390 552 390 552 286 552 c 0,38,39
 204 552 204 552 204 496 c 0,40,41
 204 464 204 464 290 444 c 0,42,43
 416 414 416 414 451 398 c 0,44,45
 538 357 538 357 538 276 c 0,0,1
394 252 m 0,46,47
 394 293 394 293 351 314 c 0,48,49
 318 330 318 330 272 330 c 0,50,51
 186 330 186 330 186 266 c 0,52,53
 186 188 186 188 308 188 c 0,54,55
 394 188 394 188 394 252 c 0,46,47
EndSplineSet
EndChar

StartChar: dieresis
Encoding: 168 168 105
Width: 505
Flags: W
LayerCount: 2
Fore
SplineSet
181 703 m 1,0,-1
 358 703 l 1,1,-1
 321 606 l 1,2,-1
 144 606 l 1,3,-1
 181 703 l 1,0,-1
407 703 m 1,4,-1
 584 703 l 1,5,-1
 547 606 l 1,6,-1
 370 606 l 1,7,-1
 407 703 l 1,4,-1
EndSplineSet
EndChar

StartChar: copyright
Encoding: 169 169 106
Width: 730
Flags: W
LayerCount: 2
Fore
SplineSet
758 364 m 256,0,1
 758 204 758 204 647 92 c 128,-1,2
 536 -20 536 -20 376 -20 c 0,3,4
 215 -20 215 -20 103.5 91.5 c 128,-1,5
 -8 203 -8 203 -8 364 c 256,6,7
 -8 525 -8 525 103.5 635.5 c 128,-1,8
 215 746 215 746 376 746 c 0,9,10
 536 746 536 746 647 635 c 128,-1,11
 758 524 758 524 758 364 c 256,0,1
686 364 m 0,12,13
 686 494 686 494 596 584 c 128,-1,14
 506 674 506 674 376 674 c 0,15,16
 245 674 245 674 154.5 584.5 c 128,-1,17
 64 495 64 495 64 364 c 0,18,19
 64 232 64 232 154 142 c 128,-1,20
 244 52 244 52 376 52 c 0,21,22
 507 52 507 52 596.5 142.5 c 128,-1,23
 686 233 686 233 686 364 c 0,12,13
570 294 m 1,24,25
 563 227 563 227 512 186.5 c 128,-1,26
 461 146 461 146 392 146 c 0,27,28
 296 146 296 146 238 208 c 128,-1,29
 180 270 180 270 180 366 c 0,30,31
 180 464 180 464 236.5 525 c 128,-1,32
 293 586 293 586 390 586 c 0,33,34
 460 586 460 586 509 548 c 128,-1,35
 558 510 558 510 570 442 c 1,36,-1
 484 442 l 1,37,38
 478 478 478 478 451.5 498 c 128,-1,39
 425 518 425 518 388 518 c 0,40,41
 327 518 327 518 295 472 c 0,42,43
 266 431 266 431 266 368 c 0,44,45
 266 309 266 309 299 264 c 0,46,47
 335 214 335 214 392 214 c 0,48,49
 428 214 428 214 454.5 236.5 c 128,-1,50
 481 259 481 259 484 294 c 1,51,-1
 570 294 l 1,24,25
EndSplineSet
EndChar

StartChar: ordfeminine
Encoding: 170 170 107
Width: 505
Flags: W
LayerCount: 2
Fore
SplineSet
181 703 m 1,0,-1
 358 703 l 1,1,-1
 253 429 l 1,2,-1
 75 429 l 1,3,-1
 181 703 l 1,0,-1
407 703 m 1,4,-1
 584 703 l 1,5,-1
 478 429 l 1,6,-1
 301 429 l 1,7,-1
 407 703 l 1,4,-1
EndSplineSet
EndChar

StartChar: guillemotleft
Encoding: 171 171 108
Width: 446
Flags: W
LayerCount: 2
Fore
SplineSet
354 67 m 1,0,-1
 218 221 l 1,1,-1
 239 325 l 1,2,-1
 435 465 l 1,3,-1
 409 344 l 1,4,-1
 293 263 l 1,5,-1
 375 171 l 1,6,-1
 354 67 l 1,0,-1
145 67 m 1,7,-1
 9 221 l 1,8,-1
 31 325 l 1,9,-1
 225 465 l 1,10,-1
 201 344 l 1,11,-1
 85 263 l 1,12,-1
 166 171 l 1,13,-1
 145 67 l 1,7,-1
EndSplineSet
EndChar

StartChar: logicalnot
Encoding: 172 172 109
Width: 578
Flags: W
LayerCount: 2
Fore
SplineSet
546 122 m 1,0,-1
 432 122 l 1,1,-1
 432 298 l 1,2,-1
 42 298 l 1,3,-1
 42 412 l 1,4,-1
 546 412 l 1,5,-1
 546 122 l 1,0,-1
EndSplineSet
EndChar

StartChar: registered
Encoding: 174 174 110
Width: 730
Flags: W
LayerCount: 2
Fore
SplineSet
758 364 m 256,0,1
 758 204 758 204 647 92 c 128,-1,2
 536 -20 536 -20 376 -20 c 0,3,4
 215 -20 215 -20 103.5 91.5 c 128,-1,5
 -8 203 -8 203 -8 364 c 256,6,7
 -8 525 -8 525 103.5 635.5 c 128,-1,8
 215 746 215 746 376 746 c 0,9,10
 536 746 536 746 647 635 c 128,-1,11
 758 524 758 524 758 364 c 256,0,1
686 364 m 0,12,13
 686 495 686 495 596.5 584.5 c 128,-1,14
 507 674 507 674 376 674 c 0,15,16
 244 674 244 674 154 585 c 128,-1,17
 64 496 64 496 64 364 c 0,18,19
 64 231 64 231 153.5 141.5 c 128,-1,20
 243 52 243 52 376 52 c 0,21,22
 508 52 508 52 597 142 c 128,-1,23
 686 232 686 232 686 364 c 0,12,13
578 442 m 0,24,25
 578 330 578 330 466 330 c 1,26,-1
 566 156 l 1,27,-1
 472 156 l 1,28,-1
 380 330 l 1,29,-1
 298 330 l 1,30,-1
 298 156 l 1,31,-1
 218 156 l 1,32,-1
 218 568 l 1,33,-1
 418 568 l 2,34,35
 493 568 493 568 530 548 c 1,36,37
 578 515 578 515 578 442 c 0,24,25
498 454 m 0,38,39
 498 489 498 489 463 501 c 0,40,41
 443 508 443 508 398 508 c 2,42,-1
 298 508 l 1,43,-1
 298 392 l 1,44,-1
 420 392 l 2,45,46
 459 392 459 392 476 403 c 0,47,48
 498 417 498 417 498 454 c 0,38,39
EndSplineSet
EndChar

StartChar: degree
Encoding: 176 176 111
Width: 397
Flags: W
LayerCount: 2
Fore
SplineSet
354 576 m 256,0,1
 354 514 354 514 310 470 c 128,-1,2
 266 426 266 426 204 426 c 0,3,4
 141 426 141 426 97.5 469.5 c 128,-1,5
 54 513 54 513 54 576 c 0,6,7
 54 638 54 638 98 682 c 128,-1,8
 142 726 142 726 204 726 c 256,9,10
 266 726 266 726 310 682 c 128,-1,11
 354 638 354 638 354 576 c 256,0,1
294 576 m 0,12,13
 294 613 294 613 267.5 639.5 c 128,-1,14
 241 666 241 666 204 666 c 256,15,16
 167 666 167 666 140.5 639.5 c 128,-1,17
 114 613 114 613 114 576 c 0,18,19
 114 538 114 538 140 512 c 128,-1,20
 166 486 166 486 204 486 c 256,21,22
 242 486 242 486 268 512 c 128,-1,23
 294 538 294 538 294 576 c 0,12,13
EndSplineSet
EndChar

StartChar: plusminus
Encoding: 177 177 112
Width: 477
Flags: W
LayerCount: 2
Fore
SplineSet
566 325 m 1,0,-1
 408 323 l 1,1,-1
 370 188 l 1,2,-1
 249 187 l 1,3,-1
 290 322 l 1,4,-1
 128 322 l 1,5,-1
 167 450 l 1,6,-1
 330 450 l 1,7,-1
 376 600 l 1,8,-1
 493 600 l 1,9,-1
 446 451 l 1,10,-1
 608 450 l 1,11,-1
 566 325 l 1,0,-1
497 -1 m 1,12,-1
 48 -1 l 1,13,-1
 84 125 l 1,14,-1
 532 125 l 1,15,-1
 497 -1 l 1,12,-1
EndSplineSet
EndChar

StartChar: twosuperior
Encoding: 178 178 113
Width: 242
Flags: W
LayerCount: 2
Fore
SplineSet
400 636 m 1,0,1
 400 670 400 670 389 689 c 0,2,3
 368 727 368 727 337 727 c 2,4,-1
 204 727 l 2,5,6
 168 727 168 727 134.5 699.5 c 128,-1,7
 101 672 101 672 90 636 c 1,8,-1
 400 636 l 1,0,1
12 351 m 1,9,-1
 325 352 l 1,10,-1
 351 444 l 1,11,-1
 194 444 l 1,12,13
 212 459 212 459 288 491 c 0,14,15
 328 508 328 508 346 522 c 0,16,17
 383 550 383 550 394 603 c 1,18,-1
 257 603 l 2,19,20
 257 601 257 601 257 600 c 0,21,22
 257 582 257 582 202 556 c 0,23,24
 119 517 119 517 84 487 c 0,25,26
 17 432 17 432 12 351 c 1,9,-1
EndSplineSet
EndChar

StartChar: threesuperior
Encoding: 179 179 114
Width: 241
Flags: W
LayerCount: 2
Fore
SplineSet
372 632 m 1,0,1
 372 665 372 665 361 686 c 0,2,3
 341 723 341 723 309 723 c 2,4,-1
 174 723 l 2,5,6
 138 723 138 723 104.5 695.5 c 128,-1,7
 71 668 71 668 59 632 c 1,8,-1
 372 632 l 1,0,1
172 499 m 2,9,10
 224 499 224 499 224 476 c 0,11,12
 224 451 224 451 185 438 c 0,13,14
 173 435 173 435 161 435 c 0,15,16
 138 435 138 435 138 452 c 0,17,18
 138 457 138 457 139 463 c 1,19,-1
 17 463 l 1,20,21
 11 429 11 429 14 415 c 0,22,23
 28 345 28 345 106 345 c 2,24,-1
 207 345 l 1,25,26
 258 355 258 355 295.5 398.5 c 128,-1,27
 333 442 333 442 333 494 c 0,28,29
 333 524 333 524 316 543 c 1,30,31
 346 569 346 569 361 598 c 1,32,-1
 151 598 l 1,33,-1
 125 499 l 1,34,-1
 172 499 l 2,9,10
EndSplineSet
EndChar

StartChar: acute
Encoding: 180 180 115
Width: 532
Flags: W
LayerCount: 2
Fore
SplineSet
525 757 m 1,0,-1
 334 576 l 1,1,-1
 243 576 l 1,2,-1
 372 757 l 1,3,-1
 525 757 l 1,0,-1
EndSplineSet
EndChar

StartChar: paragraph
Encoding: 182 182 116
Width: 550
Flags: W
LayerCount: 2
Fore
SplineSet
534 658 m 1,0,-1
 458 658 l 1,1,-1
 458 -220 l 1,2,-1
 386 -220 l 1,3,-1
 386 658 l 1,4,-1
 302 658 l 1,5,-1
 302 -220 l 1,6,-1
 230 -220 l 1,7,-1
 230 266 l 1,8,9
 131 275 131 275 78 338 c 128,-1,10
 25 401 25 401 25 501 c 0,11,12
 25 585 25 585 78 654 c 0,13,14
 135 730 135 730 216 730 c 2,15,-1
 534 730 l 1,16,-1
 534 658 l 1,0,-1
EndSplineSet
EndChar

StartChar: cedilla
Encoding: 184 184 117
Width: 532
Flags: W
LayerCount: 2
Fore
SplineSet
387 -135 m 0,1,2
 369 -199 369 -199 324 -220 c 0,3,4
 293 -235 293 -235 220 -235 c 2,5,-1
 96 -235 l 1,6,-1
 118 -158 l 1,7,-1
 245 -158 l 2,8,9
 276 -158 276 -158 283 -134 c 0,10,11
 286 -113 286 -113 261 -113 c 2,12,-1
 201 -113 l 1,13,-1
 233 0 l 1,14,-1
 303 0 l 1,15,-1
 291 -44 l 1,16,-1
 329 -44 l 2,17,18
 394 -44 394 -44 394 -96 c 0,19,20
 394 -104 394 -104 392.5 -111.5 c 128,-1,0
 391 -119 391 -119 387 -135 c 0,1,2
387 -135 m 0,22,23
 369 -199 369 -199 324 -220 c 0,24,25
 293 -235 293 -235 220 -235 c 2,26,-1
 96 -235 l 1,27,-1
 118 -158 l 1,28,-1
 245 -158 l 2,29,30
 276 -158 276 -158 283 -134 c 0,31,32
 286 -113 286 -113 261 -113 c 2,33,-1
 201 -113 l 1,34,-1
 233 0 l 1,35,-1
 303 0 l 1,36,-1
 291 -44 l 1,37,-1
 329 -44 l 2,38,39
 394 -44 394 -44 394 -96 c 0,40,41
 394 -104 394 -104 392.5 -111.5 c 128,-1,21
 391 -119 391 -119 387 -135 c 0,22,23
EndSplineSet
EndChar

StartChar: onesuperior
Encoding: 185 185 118
Width: 346
Flags: W
LayerCount: 2
Fore
SplineSet
323 608 m 1,0,-1
 263 389 l 1,1,-1
 148 389 l 1,2,-1
 209 608 l 1,3,-1
 323 608 l 1,0,-1
332 638 m 1,4,-1
 185 638 l 1,5,-1
 236 717 l 1,6,-1
 353 717 l 1,7,-1
 332 638 l 1,4,-1
EndSplineSet
EndChar

StartChar: ordmasculine
Encoding: 186 186 119
Width: 459
Flags: W
LayerCount: 2
Fore
SplineSet
420 513 m 2,0,1
 420 427 420 427 382.5 395 c 128,-1,2
 345 363 345 363 257 363 c 2,3,-1
 206 363 l 2,4,5
 120 363 120 363 83 394 c 0,6,7
 43 428 43 428 43 513 c 2,8,-1
 43 583 l 2,9,10
 43 668 43 668 83 702 c 0,11,12
 119 733 119 733 206 733 c 2,13,-1
 257 733 l 2,14,15
 343 733 343 733 380 702 c 0,16,17
 420 668 420 668 420 583 c 2,18,-1
 420 513 l 2,0,1
275 520 m 2,19,-1
 275 575 l 2,20,21
 275 606 275 606 274 611 c 0,22,23
 270 632 270 632 239 632 c 2,24,-1
 224 632 l 2,25,26
 199 632 199 632 192 615 c 0,27,28
 188 605 188 605 188 575 c 2,29,-1
 188 520 l 2,30,31
 188 483 188 483 190 478 c 0,32,33
 195 464 195 464 224 464 c 2,34,-1
 239 464 l 2,35,36
 266 464 266 464 272 480 c 0,37,38
 275 486 275 486 275 520 c 2,19,-1
EndSplineSet
EndChar

StartChar: guillemotright
Encoding: 187 187 120
Width: 550
Flags: W
LayerCount: 2
Fore
SplineSet
513 336 m 1,0,-1
 499 220 l 1,1,-1
 315 72 l 1,2,-1
 329 190 l 1,3,-1
 440 278 l 1,4,-1
 351 368 l 1,5,-1
 365 482 l 1,6,-1
 513 336 l 1,0,-1
305 336 m 1,7,-1
 291 220 l 1,8,-1
 107 72 l 1,9,-1
 121 190 l 1,10,-1
 232 278 l 1,11,-1
 143 368 l 1,12,-1
 157 482 l 1,13,-1
 305 336 l 1,7,-1
EndSplineSet
EndChar

StartChar: onequarter
Encoding: 188 188 121
Width: 689
Flags: W
LayerCount: 2
Fore
SplineSet
225 609 m 1,0,-1
 165 389 l 1,1,-1
 50 389 l 1,2,-1
 111 609 l 1,3,-1
 225 609 l 1,0,-1
234 639 m 1,4,-1
 87 639 l 1,5,-1
 138 717 l 1,6,-1
 255 717 l 1,7,-1
 234 639 l 1,4,-1
402 364 m 1,8,-1
 376 276 l 1,9,-1
 496 276 l 1,10,-1
 521 364 l 1,11,-1
 402 364 l 1,8,-1
587 364 m 1,12,-1
 562 276 l 1,13,-1
 683 276 l 1,14,-1
 707 364 l 1,15,-1
 587 364 l 1,12,-1
487 -4 m 1,16,-1
 522 119 l 1,17,-1
 336 118 l 1,18,-1
 368 242 l 1,19,-1
 487 242 l 1,20,-1
 478 210 l 1,21,-1
 546 210 l 1,22,-1
 554 242 l 1,23,-1
 675 242 l 1,24,-1
 609 -5 l 1,25,-1
 487 -4 l 1,16,-1
118 -90 m 1,26,-1
 360 740 l 1,27,-1
 427 740 l 1,28,-1
 184 -90 l 1,29,-1
 118 -90 l 1,26,-1
EndSplineSet
EndChar

StartChar: onehalf
Encoding: 189 189 122
Width: 676
Flags: W
LayerCount: 2
Fore
SplineSet
232 609 m 1,0,-1
 172 389 l 1,1,-1
 57 389 l 1,2,-1
 118 609 l 1,3,-1
 232 609 l 1,0,-1
241 639 m 1,4,-1
 94 639 l 1,5,-1
 145 717 l 1,6,-1
 262 717 l 1,7,-1
 241 639 l 1,4,-1
662 254 m 1,8,9
 662 284 662 284 653 301 c 0,10,11
 634 334 634 334 606 334 c 2,12,-1
 488 334 l 2,13,14
 456 334 456 334 426.5 310 c 128,-1,15
 397 286 397 286 386 254 c 1,16,-1
 662 254 l 1,8,9
318 1 m 1,17,-1
 595 1 l 1,18,-1
 619 83 l 1,19,-1
 479 83 l 1,20,21
 499 100 499 100 547 118.5 c 128,-1,22
 595 137 595 137 615 153 c 0,23,24
 647 177 647 177 657 224 c 1,25,-1
 535 224 l 2,26,27
 535 223 535 223 535 221 c 0,28,29
 535 205 535 205 486 182 c 0,30,31
 413 148 413 148 382 122 c 0,32,33
 322 73 322 73 318 1 c 1,17,-1
126 -87 m 1,34,-1
 368 743 l 1,35,-1
 435 743 l 1,36,-1
 192 -87 l 1,37,-1
 126 -87 l 1,34,-1
EndSplineSet
EndChar

StartChar: threequarters
Encoding: 190 190 123
Width: 875
Flags: W
LayerCount: 2
Fore
SplineSet
401 636 m 1,0,1
 401 671 401 671 387 696 c 0,2,3
 370 728 370 728 338 728 c 2,4,-1
 205 728 l 2,5,6
 168 728 168 728 135.5 700 c 128,-1,7
 103 672 103 672 90 636 c 1,8,-1
 401 636 l 1,0,1
203 500 m 2,9,10
 254 500 254 500 254 478 c 0,11,12
 254 453 254 453 215 439 c 0,13,14
 202 435 202 435 191 435 c 0,15,16
 168 435 168 435 168 453 c 0,17,18
 168 458 168 458 170 464 c 1,19,-1
 48 464 l 1,20,21
 42 430 42 430 45 416 c 0,22,23
 60 344 60 344 137 344 c 2,24,-1
 237 344 l 1,25,26
 289 355 289 355 325.5 399 c 128,-1,27
 362 443 362 443 362 495 c 0,28,29
 362 526 362 526 346 545 c 1,30,31
 376 571 376 571 391 601 c 1,32,-1
 182 601 l 1,33,-1
 155 500 l 1,34,-1
 203 500 l 2,9,10
577 392 m 1,35,-1
 549 298 l 1,36,-1
 677 298 l 1,37,-1
 703 392 l 1,38,-1
 577 392 l 1,35,-1
773 392 m 1,39,-1
 748 298 l 1,40,-1
 876 298 l 1,41,-1
 902 392 l 1,42,-1
 773 392 l 1,39,-1
666 0 m 1,43,-1
 704 131 l 1,44,-1
 506 130 l 1,45,-1
 541 263 l 1,46,-1
 667 263 l 1,47,-1
 658 228 l 1,48,-1
 730 228 l 1,49,-1
 739 263 l 1,50,-1
 868 263 l 1,51,-1
 796 -1 l 1,52,-1
 666 0 l 1,43,-1
285 -93 m 1,53,-1
 527 738 l 1,54,-1
 594 738 l 1,55,-1
 351 -93 l 1,56,-1
 285 -93 l 1,53,-1
EndSplineSet
EndChar

StartChar: questiondown
Encoding: 191 191 124
Width: 607
Flags: W
LayerCount: 2
Fore
SplineSet
614 306 m 1,0,1
 604 319 604 319 579 332 c 0,2,3
 563 340 563 340 522 361 c 0,4,5
 514 366 514 366 498 386 c 0,6,7
 497 391 497 391 493 402 c 0,8,9
 489 414 489 414 499 436 c 1,10,-1
 302 435 l 1,11,12
 287 359 287 359 293 328 c 0,13,14
 303 284 303 284 356 260 c 0,15,16
 405 239 405 239 405 210 c 0,17,18
 405 171 405 171 348 146 c 0,19,20
 317 132 317 132 286 132 c 0,21,22
 226 132 226 132 224 182 c 0,23,24
 224 202 224 202 233 231 c 1,25,-1
 43 231 l 1,26,27
 22 174 22 174 22 132 c 0,28,29
 22 -1 22 -1 229 -1 c 0,30,31
 329 -1 329 -1 423 35 c 0,32,33
 544 82 544 82 599 172 c 0,34,35
 631 225 631 225 629 257 c 0,36,37
 629 268 629 268 614 306 c 1,0,1
604 719 m 1,38,-1
 382 719 l 1,39,-1
 333 546 l 1,40,-1
 552 546 l 1,41,-1
 604 719 l 1,38,-1
EndSplineSet
EndChar

StartChar: AE
Encoding: 198 198 127
Width: 305
Flags: W
LayerCount: 2
Fore
SplineSet
194 703 m 1,0,-1
 371 703 l 1,1,-1
 265 429 l 1,2,-1
 88 429 l 1,3,-1
 194 703 l 1,0,-1
EndSplineSet
EndChar

StartChar: Ntilde
Encoding: 209 209 129
Width: 236
Flags: W
LayerCount: 2
Fore
SplineSet
222 593 m 1,0,-1
 155 342 l 1,1,-1
 27 342 l 1,2,-1
 95 593 l 1,3,-1
 222 593 l 1,0,-1
232 627 m 1,4,-1
 69 627 l 1,5,-1
 125 717 l 1,6,-1
 255 717 l 1,7,-1
 232 627 l 1,4,-1
EndSplineSet
EndChar

StartChar: multiply
Encoding: 215 215 132
Width: 578
Flags: W
LayerCount: 2
Fore
SplineSet
535 82 m 1,0,-1
 450 -3 l 1,1,-1
 300 147 l 1,2,-1
 150 -3 l 1,3,-1
 65 82 l 1,4,-1
 215 232 l 1,5,-1
 65 382 l 1,6,-1
 150 467 l 1,7,-1
 300 317 l 1,8,-1
 450 467 l 1,9,-1
 535 382 l 1,10,-1
 385 232 l 1,11,-1
 535 82 l 1,0,-1
EndSplineSet
EndChar

StartChar: germandbls
Encoding: 223 223 134
Width: 678
Flags: W
LayerCount: 2
Fore
SplineSet
334 458 m 1,0,-1
 200 1 l 1,1,-1
 -47 2 l 1,2,-1
 87 460 l 1,3,-1
 334 458 l 1,0,-1
334 458 m 1024,4,-1
384 461 m 1024,5,-1
647 458 m 1,6,7
 627 429 627 429 601 419 c 1,8,9
 684 397 684 397 684 323 c 0,10,11
 684 313 684 313 683 303 c 2,12,-1
 681 291 l 2,13,14
 679 283 679 283 675 268 c 2,15,-1
 649 180 l 2,16,17
 617 72 617 72 533 28 c 0,18,19
 465 -6 465 -6 340 -6 c 0,20,21
 305 -6 305 -6 247 0 c 1,22,-1
 288 139 l 1,23,-1
 324 136 l 1,24,25
 387 136 387 136 405 196 c 2,26,-1
 432 288 l 2,27,28
 433 292 433 292 435 300 c 0,29,30
 439 332 439 332 396 337 c 0,31,32
 381 339 381 339 348 339 c 1,33,-1
 383 456 l 1,34,-1
 647 458 l 1,6,7
106 523 m 1,35,-1
 112 543 l 2,36,37
 168 734 168 734 426 733 c 2,38,-1
 506 733 l 2,39,40
 715 733 715 733 715 617 c 0,41,42
 715 608 715 608 714 598 c 2,43,-1
 712 586 l 2,44,45
 708 578 708 578 708 574 c 2,46,-1
 692 523 l 1,47,-1
 106 523 l 1,35,-1
105 523 m 1,48,-1
 692 523 l 1,49,-1
 105 523 l 1,48,-1
85 461 m 1,50,-1
 334 461 l 1,51,-1
 85 461 l 1,50,-1
383 463 m 1,52,-1
 647 463 l 1,53,-1
 383 463 l 1,52,-1
EndSplineSet
EndChar

StartChar: divide
Encoding: 247 247 139
Width: 482
Flags: W
LayerCount: 2
Fore
SplineSet
481 290 m 1,0,-1
 33 290 l 1,1,-1
 68 417 l 1,2,-1
 517 417 l 1,3,-1
 481 290 l 1,0,-1
191 154 m 1,4,-1
 216 258 l 1,5,-1
 331 257 l 1,6,-1
 307 154 l 1,7,-1
 191 154 l 1,4,-1
226 449 m 1,8,-1
 251 549 l 1,9,-1
 367 550 l 1,10,-1
 344 450 l 1,11,-1
 226 449 l 1,8,-1
EndSplineSet
EndChar

StartChar: florin
Encoding: 402 402 141
Width: 346
Flags: W
LayerCount: 2
Fore
SplineSet
418 730 m 1,0,-1
 405 626 l 1,1,-1
 355 626 l 2,2,3
 325 626 325 626 320 588 c 2,4,-1
 313 532 l 1,5,-1
 397 532 l 1,6,-1
 386 438 l 1,7,-1
 302 438 l 1,8,-1
 238 -84 l 2,9,10
 221 -220 221 -220 89 -220 c 2,11,-1
 1 -220 l 1,12,-1
 14 -116 l 1,13,-1
 64 -116 l 2,14,15
 93 -116 93 -116 98 -78 c 2,16,-1
 162 438 l 1,17,-1
 86 438 l 1,18,-1
 97 532 l 1,19,-1
 173 532 l 1,20,-1
 181 594 l 2,21,22
 199 730 199 730 330 730 c 2,23,-1
 418 730 l 1,0,-1
EndSplineSet
EndChar

StartChar: circumflex
Encoding: 710 710 142
Width: 532
Flags: W
LayerCount: 2
Fore
SplineSet
510 576 m 1,0,-1
 419 576 l 1,1,-1
 350 666 l 1,2,-1
 258 576 l 1,3,-1
 168 576 l 1,4,-1
 297 757 l 1,5,-1
 425 757 l 1,6,-1
 510 576 l 1,0,-1
EndSplineSet
EndChar

StartChar: caron
Encoding: 711 711 143
Width: 532
Flags: W
LayerCount: 2
Fore
SplineSet
532 757 m 1,0,-1
 403 576 l 1,1,-1
 275 576 l 1,2,-1
 190 757 l 1,3,-1
 280 757 l 1,4,-1
 350 666 l 1,5,-1
 441 757 l 1,6,-1
 532 757 l 1,0,-1
EndSplineSet
EndChar

StartChar: macron
Encoding: 175 175 144
AltUni2: 0002c9.ffffffff.0
Width: 532
Flags: W
LayerCount: 2
Fore
SplineSet
504 703 m 1,0,-1
 495 627 l 1,1,-1
 195 627 l 1,2,-1
 204 703 l 1,3,-1
 504 703 l 1,0,-1
EndSplineSet
EndChar

StartChar: breve
Encoding: 728 728 145
Width: 532
Flags: W
LayerCount: 2
Fore
SplineSet
520 740 m 1,0,1
 504 663 504 663 461.5 627.5 c 128,-1,2
 419 592 419 592 341 592 c 0,3,4
 264 592 264 592 230.5 627.5 c 128,-1,5
 197 663 197 663 197 740 c 1,6,-1
 277 740 l 1,7,8
 277 676 277 676 351 676 c 0,9,10
 427 676 427 676 440 740 c 1,11,-1
 520 740 l 1,0,1
EndSplineSet
EndChar

StartChar: dotaccent
Encoding: 729 729 146
Width: 532
Flags: W
LayerCount: 2
Fore
SplineSet
425 727 m 1,0,-1
 410 601 l 1,1,-1
 275 601 l 1,2,-1
 290 727 l 1,3,-1
 425 727 l 1,0,-1
EndSplineSet
EndChar

StartChar: ring
Encoding: 730 730 147
Width: 532
Flags: W
LayerCount: 2
Fore
SplineSet
493 703 m 0,0,1
 493 693 493 693 492 688 c 0,2,3
 486 631 486 631 440.5 594 c 128,-1,4
 395 557 395 557 336 557 c 0,5,6
 282 557 282 557 247 588.5 c 128,-1,7
 212 620 212 620 212 673 c 0,8,9
 212 737 212 737 266 781 c 0,10,11
 310 817 310 817 368 817 c 0,12,13
 421 817 421 817 457 786 c 128,-1,14
 493 755 493 755 493 703 c 0,0,1
402 690 m 0,15,16
 402 733 402 733 358 733 c 0,17,18
 337 733 337 733 321 720 c 128,-1,19
 305 707 305 707 303 687 c 0,20,21
 297 641 297 641 347 641 c 0,22,23
 368 641 368 641 385 655 c 128,-1,24
 402 669 402 669 402 690 c 0,15,16
EndSplineSet
EndChar

StartChar: ogonek
Encoding: 731 731 148
Width: 532
Flags: W
LayerCount: 2
Fore
SplineSet
364 0 m 1,0,-1
 316 -65 l 2,1,2
 301 -85 301 -85 299 -94 c 0,3,4
 299 -102 299 -102 307 -102 c 2,5,-1
 348 -102 l 1,6,-1
 337 -197 l 1,7,-1
 249 -197 l 2,8,9
 222 -197 222 -197 209 -192 c 0,10,11
 190 -184 190 -184 190 -161 c 0,12,13
 190 -133 190 -133 207 -109 c 0,14,15
 213 -101 213 -101 227 -86 c 2,16,-1
 309 0 l 1,17,-1
 364 0 l 1,0,-1
EndSplineSet
EndChar

StartChar: tilde
Encoding: 732 732 149
Width: 532
Flags: W
LayerCount: 2
Fore
SplineSet
526 733 m 1,0,1
 479 612 479 612 396 612 c 0,2,3
 379 612 379 612 358 617 c 2,4,-1
 316 627 l 2,5,6
 291 633 291 633 288 633 c 0,7,8
 264 633 264 633 249 599 c 1,9,-1
 174 599 l 1,10,11
 218 716 218 716 301 716 c 0,12,13
 325 716 325 716 345 711 c 2,14,-1
 389 700 l 1,15,-1
 413 697 l 2,16,17
 437 697 437 697 451 733 c 1,18,-1
 526 733 l 1,0,1
EndSplineSet
EndChar

StartChar: hungarumlaut
Encoding: 733 733 150
Width: 532
Flags: W
LayerCount: 2
Fore
SplineSet
593 757 m 1,0,-1
 424 576 l 1,1,-1
 349 576 l 1,2,-1
 454 757 l 1,3,-1
 593 757 l 1,0,-1
436 757 m 1,4,-1
 289 576 l 1,5,-1
 219 576 l 1,6,-1
 303 757 l 1,7,-1
 436 757 l 1,4,-1
EndSplineSet
EndChar

StartChar: dagger
Encoding: 8224 8224 151
Width: 550
Flags: W
LayerCount: 2
Fore
SplineSet
585 484 m 1,0,-1
 571 368 l 1,1,-1
 389 368 l 1,2,-1
 320 -196 l 1,3,-1
 190 -196 l 1,4,-1
 259 368 l 1,5,-1
 79 368 l 1,6,-1
 93 484 l 1,7,-1
 273 484 l 1,8,-1
 301 708 l 1,9,-1
 437 708 l 1,10,-1
 409 484 l 1,11,-1
 585 484 l 1,0,-1
EndSplineSet
EndChar

StartChar: daggerdbl
Encoding: 8225 8225 152
Width: 550
Flags: W
LayerCount: 2
Fore
SplineSet
581 484 m 1,0,-1
 567 368 l 1,1,-1
 393 368 l 1,2,-1
 366 150 l 1,3,-1
 540 150 l 1,4,-1
 526 34 l 1,5,-1
 352 34 l 1,6,-1
 324 -196 l 1,7,-1
 188 -196 l 1,8,-1
 216 34 l 1,9,-1
 34 34 l 1,10,-1
 48 150 l 1,11,-1
 230 150 l 1,12,-1
 257 368 l 1,13,-1
 75 368 l 1,14,-1
 89 484 l 1,15,-1
 271 484 l 1,16,-1
 299 708 l 1,17,-1
 435 708 l 1,18,-1
 407 484 l 1,19,-1
 581 484 l 1,0,-1
EndSplineSet
EndChar

StartChar: perthousand
Encoding: 8240 8240 153
Width: 1211
Flags: W
LayerCount: 2
Fore
SplineSet
782 736 m 1,0,-1
 267 6 l 1,1,-1
 187 6 l 1,2,-1
 694 736 l 1,3,-1
 782 736 l 1,0,-1
312 724 m 1,4,-1
 390 725 l 2,5,6
 455 726 455 726 455 658 c 0,7,8
 455 651 455 651 455 643 c 1,9,-1
 172 643 l 1,10,11
 182 674 182 674 209 699 c 128,-1,12
 236 724 236 724 266 724 c 2,13,-1
 312 724 l 1,4,-1
251 504 m 2,14,-1
 254 518 l 1,15,-1
 280 610 l 1,16,-1
 165 610 l 1,17,-1
 140 517 l 2,18,19
 133 492 133 492 133 469 c 0,20,21
 133 411 133 411 186 393 c 0,22,23
 206 386 206 386 243 384 c 2,24,-1
 256 383 l 1,25,26
 387 389 387 389 419 507 c 0,27,28
 422 516 422 516 430 546 c 2,29,-1
 447 609 l 1,30,-1
 333 610 l 1,31,-1
 305 505 l 2,32,33
 300 483 300 483 277 482 c 0,34,35
 250 481 250 481 250 499 c 0,36,37
 250 501 250 501 251 504 c 2,14,-1
686 337 m 1,38,-1
 764 337 l 2,39,40
 829 338 829 338 829 270 c 0,41,42
 829 263 829 263 829 255 c 1,43,-1
 546 255 l 1,44,45
 556 286 556 286 581 310 c 0,46,47
 610 337 610 337 639 337 c 2,48,-1
 686 337 l 1,38,-1
624 116 m 2,49,-1
 628 130 l 1,50,-1
 654 222 l 1,51,-1
 539 222 l 1,52,-1
 514 129 l 2,53,54
 507 104 507 104 507 81 c 0,55,56
 507 23 507 23 560 5 c 0,57,58
 580 -2 580 -2 616 -4 c 2,59,-1
 630 -5 l 1,60,61
 761 1 761 1 793 119 c 0,62,63
 796 128 796 128 804 158 c 2,64,-1
 820 221 l 1,65,-1
 707 222 l 1,66,-1
 679 117 l 2,67,68
 673 95 673 95 651 94 c 0,69,70
 624 93 624 93 624 111 c 0,71,72
 624 113 624 113 624 116 c 2,49,-1
1038 337 m 1,73,-1
 1117 337 l 2,74,75
 1182 338 1182 338 1182 270 c 0,76,77
 1182 263 1182 263 1181 255 c 1,78,-1
 899 255 l 1,79,80
 909 286 909 286 935.5 311.5 c 128,-1,81
 962 337 962 337 992 337 c 2,82,-1
 1038 337 l 1,73,-1
977 116 m 2,83,-1
 981 130 l 1,84,-1
 1007 222 l 1,85,-1
 892 222 l 1,86,-1
 866 129 l 2,87,88
 860 104 860 104 860 81 c 0,89,90
 860 23 860 23 913 5 c 0,91,92
 933 -2 933 -2 969 -4 c 2,93,-1
 982 -5 l 1,94,95
 1114 1 1114 1 1146 119 c 0,96,97
 1149 128 1149 128 1156 158 c 2,98,-1
 1173 221 l 1,99,-1
 1060 222 l 1,100,-1
 1032 117 l 2,101,102
 1026 95 1026 95 1003 94 c 0,103,104
 977 93 977 93 977 111 c 0,105,106
 977 113 977 113 977 116 c 2,83,-1
EndSplineSet
EndChar

StartChar: trademark
Encoding: 8482 8482 154
Width: 833
Flags: W
LayerCount: 2
Fore
SplineSet
392 714 m 1,0,-1
 488 714 l 1,1,-1
 550 552 l 1,2,-1
 610 714 l 1,3,-1
 706 714 l 1,4,-1
 706 447 l 1,5,-1
 640 447 l 1,6,-1
 640 647 l 1,7,-1
 565 447 l 1,8,-1
 535 447 l 1,9,-1
 458 647 l 1,10,-1
 458 447 l 1,11,-1
 392 447 l 1,12,-1
 392 714 l 1,0,-1
101 714 m 1,13,-1
 338 714 l 1,14,-1
 338 659 l 1,15,-1
 256 659 l 1,16,-1
 256 447 l 1,17,-1
 183 447 l 1,18,-1
 183 659 l 1,19,-1
 101 659 l 1,20,-1
 101 714 l 1,13,-1
EndSplineSet
EndChar
